<?xml version="1.0" encoding="UTF-8"?>
<svg width="800" height="600" xmlns="http://www.w3.org/2000/svg">
<rect width="100%" height="100%" fill="white"/>

<!-- Title -->
<text x="400.0" y="25" font-family="Arial" font-size="18" text-anchor="middle" font-weight="bold">Cluster Visualization</text>

<!-- Axes -->
<line x1="100" y1="500" x2="700" y2="500" stroke="black" stroke-width="1.5"/>
<line x1="100" y1="100" x2="100" y2="500" stroke="black" stroke-width="1.5"/>

<!-- Axis labels -->
<text x="400.0" y="590" font-family="Arial" font-size="14" text-anchor="middle">Longitude</text>
<text x="15" y="300.0" font-family="Arial" font-size="14" text-anchor="middle" transform="rotate(-90, 15, 300.0)">Latitude</text>

<!-- Data points -->
<circle cx="127.3" cy="481.8" r="5" fill="#e41a1c" stroke="black" stroke-width="0.5" opacity="0.8"/>
<circle cx="236.4" cy="481.8" r="5" fill="#e41a1c" stroke="black" stroke-width="0.5" opacity="0.8"/>
<circle cx="454.5" cy="481.8" r="5" fill="#e41a1c" stroke="black" stroke-width="0.5" opacity="0.8"/>
<circle cx="236.4" cy="360.6" r="5" fill="#e41a1c" stroke="black" stroke-width="0.5" opacity="0.8"/>
<circle cx="345.5" cy="360.6" r="5" fill="#e41a1c" stroke="black" stroke-width="0.5" opacity="0.8"/>
<circle cx="563.6" cy="360.6" r="5" fill="#377eb8" stroke="black" stroke-width="0.5" opacity="0.8"/>
<circle cx="672.7" cy="360.6" r="5" fill="#377eb8" stroke="black" stroke-width="0.5" opacity="0.8"/>
<circle cx="236.4" cy="239.4" r="5" fill="#e41a1c" stroke="black" stroke-width="0.5" opacity="0.8"/>
<circle cx="563.6" cy="239.4" r="5" fill="#377eb8" stroke="black" stroke-width="0.5" opacity="0.8"/>
<circle cx="454.5" cy="118.2" r="5" fill="#e41a1c" stroke="black" stroke-width="0.5" opacity="0.8"/>
<circle cx="345.5" cy="481.8" r="5" fill="#e41a1c" stroke="black" stroke-width="0.5" opacity="0.8"/>
<circle cx="672.7" cy="481.8" r="5" fill="#377eb8" stroke="black" stroke-width="0.5" opacity="0.8"/>
<circle cx="127.3" cy="239.4" r="5" fill="#e41a1c" stroke="black" stroke-width="0.5" opacity="0.8"/>
<circle cx="345.5" cy="239.4" r="5" fill="#e41a1c" stroke="black" stroke-width="0.5" opacity="0.8"/>
<circle cx="672.7" cy="239.4" r="5" fill="#377eb8" stroke="black" stroke-width="0.5" opacity="0.8"/>
<circle cx="127.3" cy="118.2" r="5" fill="#e41a1c" stroke="black" stroke-width="0.5" opacity="0.8"/>
<circle cx="236.4" cy="118.2" r="5" fill="#e41a1c" stroke="black" stroke-width="0.5" opacity="0.8"/>
<circle cx="345.5" cy="118.2" r="5" fill="#e41a1c" stroke="black" stroke-width="0.5" opacity="0.8"/>
<circle cx="563.6" cy="481.8" r="5" fill="#377eb8" stroke="black" stroke-width="0.5" opacity="0.8"/>
<circle cx="127.3" cy="360.6" r="5" fill="#e41a1c" stroke="black" stroke-width="0.5" opacity="0.8"/>
<circle cx="454.5" cy="360.6" r="5" fill="#377eb8" stroke="black" stroke-width="0.5" opacity="0.8"/>
<circle cx="454.5" cy="239.4" r="5" fill="#377eb8" stroke="black" stroke-width="0.5" opacity="0.8"/>
<circle cx="563.6" cy="118.2" r="5" fill="#377eb8" stroke="black" stroke-width="0.5" opacity="0.8"/>
<circle cx="672.7" cy="118.2" r="5" fill="#377eb8" stroke="black" stroke-width="0.5" opacity="0.8"/>
<circle cx="127.3" cy="481.8" r="5" fill="#e41a1c" stroke="black" stroke-width="0.5" opacity="0.8"/>
<circle cx="236.4" cy="481.8" r="5" fill="#e41a1c" stroke="black" stroke-width="0.5" opacity="0.8"/>
<circle cx="454.5" cy="481.8" r="5" fill="#e41a1c" stroke="black" stroke-width="0.5" opacity="0.8"/>
<circle cx="236.4" cy="360.6" r="5" fill="#e41a1c" stroke="black" stroke-width="0.5" opacity="0.8"/>
<circle cx="345.5" cy="360.6" r="5" fill="#e41a1c" stroke="black" stroke-width="0.5" opacity="0.8"/>
<circle cx="563.6" cy="360.6" r="5" fill="#377eb8" stroke="black" stroke-width="0.5" opacity="0.8"/>
<circle cx="672.7" cy="360.6" r="5" fill="#377eb8" stroke="black" stroke-width="0.5" opacity="0.8"/>
<circle cx="236.4" cy="239.4" r="5" fill="#e41a1c" stroke="black" stroke-width="0.5" opacity="0.8"/>
<circle cx="563.6" cy="239.4" r="5" fill="#377eb8" stroke="black" stroke-width="0.5" opacity="0.8"/>
<circle cx="454.5" cy="118.2" r="5" fill="#e41a1c" stroke="black" stroke-width="0.5" opacity="0.8"/>
<circle cx="345.5" cy="481.8" r="5" fill="#e41a1c" stroke="black" stroke-width="0.5" opacity="0.8"/>
<circle cx="672.7" cy="481.8" r="5" fill="#377eb8" stroke="black" stroke-width="0.5" opacity="0.8"/>
<circle cx="127.3" cy="239.4" r="5" fill="#e41a1c" stroke="black" stroke-width="0.5" opacity="0.8"/>
<circle cx="345.5" cy="239.4" r="5" fill="#e41a1c" stroke="black" stroke-width="0.5" opacity="0.8"/>
<circle cx="672.7" cy="239.4" r="5" fill="#377eb8" stroke="black" stroke-width="0.5" opacity="0.8"/>
<circle cx="127.3" cy="118.2" r="5" fill="#e41a1c" stroke="black" stroke-width="0.5" opacity="0.8"/>
<circle cx="236.4" cy="118.2" r="5" fill="#e41a1c" stroke="black" stroke-width="0.5" opacity="0.8"/>
<circle cx="345.5" cy="118.2" r="5" fill="#e41a1c" stroke="black" stroke-width="0.5" opacity="0.8"/>
<circle cx="563.6" cy="481.8" r="5" fill="#377eb8" stroke="black" stroke-width="0.5" opacity="0.8"/>
<circle cx="127.3" cy="360.6" r="5" fill="#e41a1c" stroke="black" stroke-width="0.5" opacity="0.8"/>
<circle cx="454.5" cy="360.6" r="5" fill="#377eb8" stroke="black" stroke-width="0.5" opacity="0.8"/>
<circle cx="454.5" cy="239.4" r="5" fill="#377eb8" stroke="black" stroke-width="0.5" opacity="0.8"/>
<circle cx="563.6" cy="118.2" r="5" fill="#377eb8" stroke="black" stroke-width="0.5" opacity="0.8"/>
<circle cx="672.7" cy="118.2" r="5" fill="#377eb8" stroke="black" stroke-width="0.5" opacity="0.8"/>
<circle cx="127.3" cy="481.8" r="5" fill="#e41a1c" stroke="black" stroke-width="0.5" opacity="0.8"/>
<circle cx="236.4" cy="481.8" r="5" fill="#e41a1c" stroke="black" stroke-width="0.5" opacity="0.8"/>
<circle cx="454.5" cy="481.8" r="5" fill="#e41a1c" stroke="black" stroke-width="0.5" opacity="0.8"/>
<circle cx="236.4" cy="360.6" r="5" fill="#e41a1c" stroke="black" stroke-width="0.5" opacity="0.8"/>
<circle cx="345.5" cy="360.6" r="5" fill="#e41a1c" stroke="black" stroke-width="0.5" opacity="0.8"/>
<circle cx="563.6" cy="360.6" r="5" fill="#377eb8" stroke="black" stroke-width="0.5" opacity="0.8"/>
<circle cx="672.7" cy="360.6" r="5" fill="#377eb8" stroke="black" stroke-width="0.5" opacity="0.8"/>
<circle cx="236.4" cy="239.4" r="5" fill="#e41a1c" stroke="black" stroke-width="0.5" opacity="0.8"/>
<circle cx="563.6" cy="239.4" r="5" fill="#377eb8" stroke="black" stroke-width="0.5" opacity="0.8"/>
<circle cx="454.5" cy="118.2" r="5" fill="#e41a1c" stroke="black" stroke-width="0.5" opacity="0.8"/>
<circle cx="345.5" cy="481.8" r="5" fill="#e41a1c" stroke="black" stroke-width="0.5" opacity="0.8"/>
<circle cx="672.7" cy="481.8" r="5" fill="#377eb8" stroke="black" stroke-width="0.5" opacity="0.8"/>
<circle cx="127.3" cy="239.4" r="5" fill="#e41a1c" stroke="black" stroke-width="0.5" opacity="0.8"/>
<circle cx="345.5" cy="239.4" r="5" fill="#e41a1c" stroke="black" stroke-width="0.5" opacity="0.8"/>
<circle cx="672.7" cy="239.4" r="5" fill="#377eb8" stroke="black" stroke-width="0.5" opacity="0.8"/>
<circle cx="127.3" cy="118.2" r="5" fill="#e41a1c" stroke="black" stroke-width="0.5" opacity="0.8"/>
<circle cx="236.4" cy="118.2" r="5" fill="#e41a1c" stroke="black" stroke-width="0.5" opacity="0.8"/>
<circle cx="345.5" cy="118.2" r="5" fill="#e41a1c" stroke="black" stroke-width="0.5" opacity="0.8"/>
<circle cx="563.6" cy="481.8" r="5" fill="#377eb8" stroke="black" stroke-width="0.5" opacity="0.8"/>
<circle cx="127.3" cy="360.6" r="5" fill="#e41a1c" stroke="black" stroke-width="0.5" opacity="0.8"/>
<circle cx="454.5" cy="360.6" r="5" fill="#377eb8" stroke="black" stroke-width="0.5" opacity="0.8"/>
<circle cx="454.5" cy="239.4" r="5" fill="#377eb8" stroke="black" stroke-width="0.5" opacity="0.8"/>
<circle cx="563.6" cy="118.2" r="5" fill="#377eb8" stroke="black" stroke-width="0.5" opacity="0.8"/>
<circle cx="672.7" cy="118.2" r="5" fill="#377eb8" stroke="black" stroke-width="0.5" opacity="0.8"/>
<!-- Legend -->
<text x="715" y="105" font-family="Arial" font-size="12" font-weight="bold">Clusters</text>
<rect x="715" y="110" width="10" height="10" fill="#e41a1c" stroke="black" stroke-width="0.5"/>
<text x="735" y="120" font-family="Arial" font-size="12">1</text>
<rect x="715" y="130" width="10" height="10" fill="#377eb8" stroke="black" stroke-width="0.5"/>
<text x="735" y="140" font-family="Arial" font-size="12">2</text>
</svg>