<svg xmlns="http://www.w3.org/2000/svg" xmlns:xlink="http://www.w3.org/1999/xlink" width="600" height="400" viewBox="0 0 2400 1600">
<defs>
  <clipPath id="clip330">
    <rect x="0" y="0" width="2400" height="1600"></rect>
  </clipPath>
</defs>
<path clip-path="url(#clip330)" d="M0 1600 L2400 1600 L2400 8.88178e-14 L0 8.88178e-14  Z" fill="#ffffff" fill-rule="evenodd" fill-opacity="1"></path>
<defs>
  <clipPath id="clip331">
    <rect x="480" y="0" width="1681" height="1600"></rect>
  </clipPath>
</defs>
<path clip-path="url(#clip330)" d="M249.542 1423.18 L2352.76 1423.18 L2352.76 123.472 L249.542 123.472  Z" fill="#ffffff" fill-rule="evenodd" fill-opacity="1"></path>
<defs>
  <clipPath id="clip332">
    <rect x="249" y="123" width="2104" height="1301"></rect>
  </clipPath>
</defs>
<polyline clip-path="url(#clip332)" style="stroke:#000000; stroke-linecap:round; stroke-linejoin:round; stroke-width:2; stroke-opacity:0.1; fill:none" points="309.067,1423.18 309.067,123.472 "></polyline>
<polyline clip-path="url(#clip332)" style="stroke:#000000; stroke-linecap:round; stroke-linejoin:round; stroke-width:2; stroke-opacity:0.1; fill:none" points="705.9,1423.18 705.9,123.472 "></polyline>
<polyline clip-path="url(#clip332)" style="stroke:#000000; stroke-linecap:round; stroke-linejoin:round; stroke-width:2; stroke-opacity:0.1; fill:none" points="1102.73,1423.18 1102.73,123.472 "></polyline>
<polyline clip-path="url(#clip332)" style="stroke:#000000; stroke-linecap:round; stroke-linejoin:round; stroke-width:2; stroke-opacity:0.1; fill:none" points="1499.57,1423.18 1499.57,123.472 "></polyline>
<polyline clip-path="url(#clip332)" style="stroke:#000000; stroke-linecap:round; stroke-linejoin:round; stroke-width:2; stroke-opacity:0.1; fill:none" points="1896.4,1423.18 1896.4,123.472 "></polyline>
<polyline clip-path="url(#clip332)" style="stroke:#000000; stroke-linecap:round; stroke-linejoin:round; stroke-width:2; stroke-opacity:0.1; fill:none" points="2293.23,1423.18 2293.23,123.472 "></polyline>
<polyline clip-path="url(#clip332)" style="stroke:#000000; stroke-linecap:round; stroke-linejoin:round; stroke-width:2; stroke-opacity:0.1; fill:none" points="249.542,1304.65 2352.76,1304.65 "></polyline>
<polyline clip-path="url(#clip332)" style="stroke:#000000; stroke-linecap:round; stroke-linejoin:round; stroke-width:2; stroke-opacity:0.1; fill:none" points="249.542,1059.43 2352.76,1059.43 "></polyline>
<polyline clip-path="url(#clip332)" style="stroke:#000000; stroke-linecap:round; stroke-linejoin:round; stroke-width:2; stroke-opacity:0.1; fill:none" points="249.542,814.197 2352.76,814.197 "></polyline>
<polyline clip-path="url(#clip332)" style="stroke:#000000; stroke-linecap:round; stroke-linejoin:round; stroke-width:2; stroke-opacity:0.1; fill:none" points="249.542,568.969 2352.76,568.969 "></polyline>
<polyline clip-path="url(#clip332)" style="stroke:#000000; stroke-linecap:round; stroke-linejoin:round; stroke-width:2; stroke-opacity:0.1; fill:none" points="249.542,323.742 2352.76,323.742 "></polyline>
<polyline clip-path="url(#clip330)" style="stroke:#000000; stroke-linecap:round; stroke-linejoin:round; stroke-width:4; stroke-opacity:1; fill:none" points="249.542,1423.18 2352.76,1423.18 "></polyline>
<polyline clip-path="url(#clip330)" style="stroke:#000000; stroke-linecap:round; stroke-linejoin:round; stroke-width:4; stroke-opacity:1; fill:none" points="309.067,1423.18 309.067,1404.28 "></polyline>
<polyline clip-path="url(#clip330)" style="stroke:#000000; stroke-linecap:round; stroke-linejoin:round; stroke-width:4; stroke-opacity:1; fill:none" points="705.9,1423.18 705.9,1404.28 "></polyline>
<polyline clip-path="url(#clip330)" style="stroke:#000000; stroke-linecap:round; stroke-linejoin:round; stroke-width:4; stroke-opacity:1; fill:none" points="1102.73,1423.18 1102.73,1404.28 "></polyline>
<polyline clip-path="url(#clip330)" style="stroke:#000000; stroke-linecap:round; stroke-linejoin:round; stroke-width:4; stroke-opacity:1; fill:none" points="1499.57,1423.18 1499.57,1404.28 "></polyline>
<polyline clip-path="url(#clip330)" style="stroke:#000000; stroke-linecap:round; stroke-linejoin:round; stroke-width:4; stroke-opacity:1; fill:none" points="1896.4,1423.18 1896.4,1404.28 "></polyline>
<polyline clip-path="url(#clip330)" style="stroke:#000000; stroke-linecap:round; stroke-linejoin:round; stroke-width:4; stroke-opacity:1; fill:none" points="2293.23,1423.18 2293.23,1404.28 "></polyline>
<path clip-path="url(#clip330)" d="M225.433 1468.75 L255.109 1468.75 L255.109 1472.69 L225.433 1472.69 L225.433 1468.75 Z" fill="#000000" fill-rule="nonzero" fill-opacity="1"></path><path clip-path="url(#clip330)" d="M266.012 1481.64 L273.65 1481.64 L273.65 1455.28 L265.34 1456.95 L265.34 1452.69 L273.604 1451.02 L278.28 1451.02 L278.28 1481.64 L285.919 1481.64 L285.919 1485.58 L266.012 1485.58 L266.012 1481.64 Z" fill="#000000" fill-rule="nonzero" fill-opacity="1"></path><path clip-path="url(#clip330)" d="M296.174 1481.64 L303.812 1481.64 L303.812 1455.28 L295.502 1456.95 L295.502 1452.69 L303.766 1451.02 L308.442 1451.02 L308.442 1481.64 L316.081 1481.64 L316.081 1485.58 L296.174 1485.58 L296.174 1481.64 Z" fill="#000000" fill-rule="nonzero" fill-opacity="1"></path><path clip-path="url(#clip330)" d="M335.525 1454.1 Q331.914 1454.1 330.085 1457.66 Q328.28 1461.2 328.28 1468.33 Q328.28 1475.44 330.085 1479.01 Q331.914 1482.55 335.525 1482.55 Q339.159 1482.55 340.965 1479.01 Q342.794 1475.44 342.794 1468.33 Q342.794 1461.2 340.965 1457.66 Q339.159 1454.1 335.525 1454.1 M335.525 1450.39 Q341.335 1450.39 344.391 1455 Q347.47 1459.58 347.47 1468.33 Q347.47 1477.06 344.391 1481.67 Q341.335 1486.25 335.525 1486.25 Q329.715 1486.25 326.636 1481.67 Q323.581 1477.06 323.581 1468.33 Q323.581 1459.58 326.636 1455 Q329.715 1450.39 335.525 1450.39 Z" fill="#000000" fill-rule="nonzero" fill-opacity="1"></path><path clip-path="url(#clip330)" d="M355.687 1479.7 L360.571 1479.7 L360.571 1485.58 L355.687 1485.58 L355.687 1479.7 Z" fill="#000000" fill-rule="nonzero" fill-opacity="1"></path><path clip-path="url(#clip330)" d="M380.756 1454.1 Q377.145 1454.1 375.317 1457.66 Q373.511 1461.2 373.511 1468.33 Q373.511 1475.44 375.317 1479.01 Q377.145 1482.55 380.756 1482.55 Q384.391 1482.55 386.196 1479.01 Q388.025 1475.44 388.025 1468.33 Q388.025 1461.2 386.196 1457.66 Q384.391 1454.1 380.756 1454.1 M380.756 1450.39 Q386.567 1450.39 389.622 1455 Q392.701 1459.58 392.701 1468.33 Q392.701 1477.06 389.622 1481.67 Q386.567 1486.25 380.756 1486.25 Q374.946 1486.25 371.868 1481.67 Q368.812 1477.06 368.812 1468.33 Q368.812 1459.58 371.868 1455 Q374.946 1450.39 380.756 1450.39 Z" fill="#000000" fill-rule="nonzero" fill-opacity="1"></path><path clip-path="url(#clip330)" d="M622.764 1468.75 L652.439 1468.75 L652.439 1472.69 L622.764 1472.69 L622.764 1468.75 Z" fill="#000000" fill-rule="nonzero" fill-opacity="1"></path><path clip-path="url(#clip330)" d="M663.342 1481.64 L670.981 1481.64 L670.981 1455.28 L662.671 1456.95 L662.671 1452.69 L670.935 1451.02 L675.611 1451.02 L675.611 1481.64 L683.249 1481.64 L683.249 1485.58 L663.342 1485.58 L663.342 1481.64 Z" fill="#000000" fill-rule="nonzero" fill-opacity="1"></path><path clip-path="url(#clip330)" d="M702.694 1454.1 Q699.083 1454.1 697.254 1457.66 Q695.448 1461.2 695.448 1468.33 Q695.448 1475.44 697.254 1479.01 Q699.083 1482.55 702.694 1482.55 Q706.328 1482.55 708.134 1479.01 Q709.962 1475.44 709.962 1468.33 Q709.962 1461.2 708.134 1457.66 Q706.328 1454.1 702.694 1454.1 M702.694 1450.39 Q708.504 1450.39 711.559 1455 Q714.638 1459.58 714.638 1468.33 Q714.638 1477.06 711.559 1481.67 Q708.504 1486.25 702.694 1486.25 Q696.884 1486.25 693.805 1481.67 Q690.749 1477.06 690.749 1468.33 Q690.749 1459.58 693.805 1455 Q696.884 1450.39 702.694 1450.39 Z" fill="#000000" fill-rule="nonzero" fill-opacity="1"></path><path clip-path="url(#clip330)" d="M722.995 1484.86 L722.995 1480.6 Q724.754 1481.44 726.559 1481.88 Q728.365 1482.32 730.101 1482.32 Q734.731 1482.32 737.161 1479.21 Q739.615 1476.09 739.962 1469.75 Q738.619 1471.74 736.559 1472.8 Q734.499 1473.87 731.999 1473.87 Q726.814 1473.87 723.782 1470.74 Q720.772 1467.59 720.772 1462.15 Q720.772 1456.83 723.92 1453.61 Q727.069 1450.39 732.3 1450.39 Q738.295 1450.39 741.444 1455 Q744.615 1459.58 744.615 1468.33 Q744.615 1476.51 740.726 1481.39 Q736.86 1486.25 730.309 1486.25 Q728.55 1486.25 726.745 1485.9 Q724.939 1485.56 722.995 1484.86 M732.3 1470.21 Q735.448 1470.21 737.277 1468.06 Q739.129 1465.9 739.129 1462.15 Q739.129 1458.43 737.277 1456.27 Q735.448 1454.1 732.3 1454.1 Q729.152 1454.1 727.3 1456.27 Q725.471 1458.43 725.471 1462.15 Q725.471 1465.9 727.3 1468.06 Q729.152 1470.21 732.3 1470.21 Z" fill="#000000" fill-rule="nonzero" fill-opacity="1"></path><path clip-path="url(#clip330)" d="M753.018 1479.7 L757.902 1479.7 L757.902 1485.58 L753.018 1485.58 L753.018 1479.7 Z" fill="#000000" fill-rule="nonzero" fill-opacity="1"></path><path clip-path="url(#clip330)" d="M768.133 1451.02 L786.49 1451.02 L786.49 1454.96 L772.416 1454.96 L772.416 1463.43 Q773.434 1463.08 774.453 1462.92 Q775.471 1462.73 776.49 1462.73 Q782.277 1462.73 785.656 1465.9 Q789.036 1469.08 789.036 1474.49 Q789.036 1480.07 785.564 1483.17 Q782.091 1486.25 775.772 1486.25 Q773.596 1486.25 771.328 1485.88 Q769.082 1485.51 766.675 1484.77 L766.675 1480.07 Q768.758 1481.2 770.98 1481.76 Q773.203 1482.32 775.679 1482.32 Q779.684 1482.32 782.022 1480.21 Q784.36 1478.1 784.36 1474.49 Q784.36 1470.88 782.022 1468.77 Q779.684 1466.67 775.679 1466.67 Q773.804 1466.67 771.929 1467.08 Q770.078 1467.5 768.133 1468.38 L768.133 1451.02 Z" fill="#000000" fill-rule="nonzero" fill-opacity="1"></path><path clip-path="url(#clip330)" d="M1019.1 1468.75 L1048.77 1468.75 L1048.77 1472.69 L1019.1 1472.69 L1019.1 1468.75 Z" fill="#000000" fill-rule="nonzero" fill-opacity="1"></path><path clip-path="url(#clip330)" d="M1059.68 1481.64 L1067.32 1481.64 L1067.32 1455.28 L1059.01 1456.95 L1059.01 1452.69 L1067.27 1451.02 L1071.95 1451.02 L1071.95 1481.64 L1079.58 1481.64 L1079.58 1485.58 L1059.68 1485.58 L1059.68 1481.64 Z" fill="#000000" fill-rule="nonzero" fill-opacity="1"></path><path clip-path="url(#clip330)" d="M1099.03 1454.1 Q1095.42 1454.1 1093.59 1457.66 Q1091.78 1461.2 1091.78 1468.33 Q1091.78 1475.44 1093.59 1479.01 Q1095.42 1482.55 1099.03 1482.55 Q1102.66 1482.55 1104.47 1479.01 Q1106.3 1475.44 1106.3 1468.33 Q1106.3 1461.2 1104.47 1457.66 Q1102.66 1454.1 1099.03 1454.1 M1099.03 1450.39 Q1104.84 1450.39 1107.89 1455 Q1110.97 1459.58 1110.97 1468.33 Q1110.97 1477.06 1107.89 1481.67 Q1104.84 1486.25 1099.03 1486.25 Q1093.22 1486.25 1090.14 1481.67 Q1087.08 1477.06 1087.08 1468.33 Q1087.08 1459.58 1090.14 1455 Q1093.22 1450.39 1099.03 1450.39 Z" fill="#000000" fill-rule="nonzero" fill-opacity="1"></path><path clip-path="url(#clip330)" d="M1119.33 1484.86 L1119.33 1480.6 Q1121.09 1481.44 1122.89 1481.88 Q1124.7 1482.32 1126.44 1482.32 Q1131.07 1482.32 1133.5 1479.21 Q1135.95 1476.09 1136.3 1469.75 Q1134.95 1471.74 1132.89 1472.8 Q1130.83 1473.87 1128.33 1473.87 Q1123.15 1473.87 1120.12 1470.74 Q1117.11 1467.59 1117.11 1462.15 Q1117.11 1456.83 1120.26 1453.61 Q1123.4 1450.39 1128.64 1450.39 Q1134.63 1450.39 1137.78 1455 Q1140.95 1459.58 1140.95 1468.33 Q1140.95 1476.51 1137.06 1481.39 Q1133.2 1486.25 1126.64 1486.25 Q1124.89 1486.25 1123.08 1485.9 Q1121.27 1485.56 1119.33 1484.86 M1128.64 1470.21 Q1131.78 1470.21 1133.61 1468.06 Q1135.46 1465.9 1135.46 1462.15 Q1135.46 1458.43 1133.61 1456.27 Q1131.78 1454.1 1128.64 1454.1 Q1125.49 1454.1 1123.64 1456.27 Q1121.81 1458.43 1121.81 1462.15 Q1121.81 1465.9 1123.64 1468.06 Q1125.49 1470.21 1128.64 1470.21 Z" fill="#000000" fill-rule="nonzero" fill-opacity="1"></path><path clip-path="url(#clip330)" d="M1149.35 1479.7 L1154.24 1479.7 L1154.24 1485.58 L1149.35 1485.58 L1149.35 1479.7 Z" fill="#000000" fill-rule="nonzero" fill-opacity="1"></path><path clip-path="url(#clip330)" d="M1174.42 1454.1 Q1170.81 1454.1 1168.98 1457.66 Q1167.18 1461.2 1167.18 1468.33 Q1167.18 1475.44 1168.98 1479.01 Q1170.81 1482.55 1174.42 1482.55 Q1178.06 1482.55 1179.86 1479.01 Q1181.69 1475.44 1181.69 1468.33 Q1181.69 1461.2 1179.86 1457.66 Q1178.06 1454.1 1174.42 1454.1 M1174.42 1450.39 Q1180.23 1450.39 1183.29 1455 Q1186.37 1459.58 1186.37 1468.33 Q1186.37 1477.06 1183.29 1481.67 Q1180.23 1486.25 1174.42 1486.25 Q1168.61 1486.25 1165.53 1481.67 Q1162.48 1477.06 1162.48 1468.33 Q1162.48 1459.58 1165.53 1455 Q1168.61 1450.39 1174.42 1450.39 Z" fill="#000000" fill-rule="nonzero" fill-opacity="1"></path><path clip-path="url(#clip330)" d="M1416.43 1468.75 L1446.11 1468.75 L1446.11 1472.69 L1416.43 1472.69 L1416.43 1468.75 Z" fill="#000000" fill-rule="nonzero" fill-opacity="1"></path><path clip-path="url(#clip330)" d="M1457.01 1481.64 L1464.65 1481.64 L1464.65 1455.28 L1456.34 1456.95 L1456.34 1452.69 L1464.6 1451.02 L1469.28 1451.02 L1469.28 1481.64 L1476.92 1481.64 L1476.92 1485.58 L1457.01 1485.58 L1457.01 1481.64 Z" fill="#000000" fill-rule="nonzero" fill-opacity="1"></path><path clip-path="url(#clip330)" d="M1496.36 1454.1 Q1492.75 1454.1 1490.92 1457.66 Q1489.11 1461.2 1489.11 1468.33 Q1489.11 1475.44 1490.92 1479.01 Q1492.75 1482.55 1496.36 1482.55 Q1499.99 1482.55 1501.8 1479.01 Q1503.63 1475.44 1503.63 1468.33 Q1503.63 1461.2 1501.8 1457.66 Q1499.99 1454.1 1496.36 1454.1 M1496.36 1450.39 Q1502.17 1450.39 1505.23 1455 Q1508.3 1459.58 1508.3 1468.33 Q1508.3 1477.06 1505.23 1481.67 Q1502.17 1486.25 1496.36 1486.25 Q1490.55 1486.25 1487.47 1481.67 Q1484.41 1477.06 1484.41 1468.33 Q1484.41 1459.58 1487.47 1455 Q1490.55 1450.39 1496.36 1450.39 Z" fill="#000000" fill-rule="nonzero" fill-opacity="1"></path><path clip-path="url(#clip330)" d="M1526.52 1469.17 Q1523.19 1469.17 1521.27 1470.95 Q1519.37 1472.73 1519.37 1475.86 Q1519.37 1478.98 1521.27 1480.77 Q1523.19 1482.55 1526.52 1482.55 Q1529.85 1482.55 1531.78 1480.77 Q1533.7 1478.96 1533.7 1475.86 Q1533.7 1472.73 1531.78 1470.95 Q1529.88 1469.17 1526.52 1469.17 M1521.85 1467.18 Q1518.84 1466.44 1517.15 1464.38 Q1515.48 1462.32 1515.48 1459.35 Q1515.48 1455.21 1518.42 1452.8 Q1521.38 1450.39 1526.52 1450.39 Q1531.68 1450.39 1534.62 1452.8 Q1537.56 1455.21 1537.56 1459.35 Q1537.56 1462.32 1535.87 1464.38 Q1534.21 1466.44 1531.22 1467.18 Q1534.6 1467.96 1536.47 1470.26 Q1538.37 1472.55 1538.37 1475.86 Q1538.37 1480.88 1535.29 1483.57 Q1532.24 1486.25 1526.52 1486.25 Q1520.8 1486.25 1517.72 1483.57 Q1514.67 1480.88 1514.67 1475.86 Q1514.67 1472.55 1516.57 1470.26 Q1518.47 1467.96 1521.85 1467.18 M1520.13 1459.79 Q1520.13 1462.48 1521.8 1463.98 Q1523.49 1465.49 1526.52 1465.49 Q1529.53 1465.49 1531.22 1463.98 Q1532.93 1462.48 1532.93 1459.79 Q1532.93 1457.11 1531.22 1455.6 Q1529.53 1454.1 1526.52 1454.1 Q1523.49 1454.1 1521.8 1455.6 Q1520.13 1457.11 1520.13 1459.79 Z" fill="#000000" fill-rule="nonzero" fill-opacity="1"></path><path clip-path="url(#clip330)" d="M1546.68 1479.7 L1551.57 1479.7 L1551.57 1485.58 L1546.68 1485.58 L1546.68 1479.7 Z" fill="#000000" fill-rule="nonzero" fill-opacity="1"></path><path clip-path="url(#clip330)" d="M1561.8 1451.02 L1580.16 1451.02 L1580.16 1454.96 L1566.08 1454.96 L1566.08 1463.43 Q1567.1 1463.08 1568.12 1462.92 Q1569.14 1462.73 1570.16 1462.73 Q1575.94 1462.73 1579.32 1465.9 Q1582.7 1469.08 1582.7 1474.49 Q1582.7 1480.07 1579.23 1483.17 Q1575.76 1486.25 1569.44 1486.25 Q1567.26 1486.25 1564.99 1485.88 Q1562.75 1485.51 1560.34 1484.77 L1560.34 1480.07 Q1562.42 1481.2 1564.65 1481.76 Q1566.87 1482.32 1569.35 1482.32 Q1573.35 1482.32 1575.69 1480.21 Q1578.03 1478.1 1578.03 1474.49 Q1578.03 1470.88 1575.69 1468.77 Q1573.35 1466.67 1569.35 1466.67 Q1567.47 1466.67 1565.6 1467.08 Q1563.74 1467.5 1561.8 1468.38 L1561.8 1451.02 Z" fill="#000000" fill-rule="nonzero" fill-opacity="1"></path><path clip-path="url(#clip330)" d="M1812.76 1468.75 L1842.44 1468.75 L1842.44 1472.69 L1812.76 1472.69 L1812.76 1468.75 Z" fill="#000000" fill-rule="nonzero" fill-opacity="1"></path><path clip-path="url(#clip330)" d="M1853.34 1481.64 L1860.98 1481.64 L1860.98 1455.28 L1852.67 1456.95 L1852.67 1452.69 L1860.94 1451.02 L1865.61 1451.02 L1865.61 1481.64 L1873.25 1481.64 L1873.25 1485.58 L1853.34 1485.58 L1853.34 1481.64 Z" fill="#000000" fill-rule="nonzero" fill-opacity="1"></path><path clip-path="url(#clip330)" d="M1892.69 1454.1 Q1889.08 1454.1 1887.25 1457.66 Q1885.45 1461.2 1885.45 1468.33 Q1885.45 1475.44 1887.25 1479.01 Q1889.08 1482.55 1892.69 1482.55 Q1896.33 1482.55 1898.13 1479.01 Q1899.96 1475.44 1899.96 1468.33 Q1899.96 1461.2 1898.13 1457.66 Q1896.33 1454.1 1892.69 1454.1 M1892.69 1450.39 Q1898.5 1450.39 1901.56 1455 Q1904.64 1459.58 1904.64 1468.33 Q1904.64 1477.06 1901.56 1481.67 Q1898.5 1486.25 1892.69 1486.25 Q1886.88 1486.25 1883.81 1481.67 Q1880.75 1477.06 1880.75 1468.33 Q1880.75 1459.58 1883.81 1455 Q1886.88 1450.39 1892.69 1450.39 Z" fill="#000000" fill-rule="nonzero" fill-opacity="1"></path><path clip-path="url(#clip330)" d="M1922.86 1469.17 Q1919.52 1469.17 1917.6 1470.95 Q1915.7 1472.73 1915.7 1475.86 Q1915.7 1478.98 1917.6 1480.77 Q1919.52 1482.55 1922.86 1482.55 Q1926.19 1482.55 1928.11 1480.77 Q1930.03 1478.96 1930.03 1475.86 Q1930.03 1472.73 1928.11 1470.95 Q1926.21 1469.17 1922.86 1469.17 M1918.18 1467.18 Q1915.17 1466.44 1913.48 1464.38 Q1911.81 1462.32 1911.81 1459.35 Q1911.81 1455.21 1914.75 1452.8 Q1917.72 1450.39 1922.86 1450.39 Q1928.02 1450.39 1930.96 1452.8 Q1933.9 1455.21 1933.9 1459.35 Q1933.9 1462.32 1932.21 1464.38 Q1930.54 1466.44 1927.56 1467.18 Q1930.94 1467.96 1932.81 1470.26 Q1934.71 1472.55 1934.71 1475.86 Q1934.71 1480.88 1931.63 1483.57 Q1928.57 1486.25 1922.86 1486.25 Q1917.14 1486.25 1914.06 1483.57 Q1911 1480.88 1911 1475.86 Q1911 1472.55 1912.9 1470.26 Q1914.8 1467.96 1918.18 1467.18 M1916.47 1459.79 Q1916.47 1462.48 1918.13 1463.98 Q1919.82 1465.49 1922.86 1465.49 Q1925.87 1465.49 1927.56 1463.98 Q1929.27 1462.48 1929.27 1459.79 Q1929.27 1457.11 1927.56 1455.6 Q1925.87 1454.1 1922.86 1454.1 Q1919.82 1454.1 1918.13 1455.6 Q1916.47 1457.11 1916.47 1459.79 Z" fill="#000000" fill-rule="nonzero" fill-opacity="1"></path><path clip-path="url(#clip330)" d="M1943.02 1479.7 L1947.9 1479.7 L1947.9 1485.58 L1943.02 1485.58 L1943.02 1479.7 Z" fill="#000000" fill-rule="nonzero" fill-opacity="1"></path><path clip-path="url(#clip330)" d="M1968.09 1454.1 Q1964.48 1454.1 1962.65 1457.66 Q1960.84 1461.2 1960.84 1468.33 Q1960.84 1475.44 1962.65 1479.01 Q1964.48 1482.55 1968.09 1482.55 Q1971.72 1482.55 1973.53 1479.01 Q1975.36 1475.44 1975.36 1468.33 Q1975.36 1461.2 1973.53 1457.66 Q1971.72 1454.1 1968.09 1454.1 M1968.09 1450.39 Q1973.9 1450.39 1976.95 1455 Q1980.03 1459.58 1980.03 1468.33 Q1980.03 1477.06 1976.95 1481.67 Q1973.9 1486.25 1968.09 1486.25 Q1962.28 1486.25 1959.2 1481.67 Q1956.14 1477.06 1956.14 1468.33 Q1956.14 1459.58 1959.2 1455 Q1962.28 1450.39 1968.09 1450.39 Z" fill="#000000" fill-rule="nonzero" fill-opacity="1"></path><path clip-path="url(#clip330)" d="M2210.09 1468.75 L2239.77 1468.75 L2239.77 1472.69 L2210.09 1472.69 L2210.09 1468.75 Z" fill="#000000" fill-rule="nonzero" fill-opacity="1"></path><path clip-path="url(#clip330)" d="M2250.67 1481.64 L2258.31 1481.64 L2258.31 1455.28 L2250 1456.95 L2250 1452.69 L2258.27 1451.02 L2262.94 1451.02 L2262.94 1481.64 L2270.58 1481.64 L2270.58 1485.58 L2250.67 1485.58 L2250.67 1481.64 Z" fill="#000000" fill-rule="nonzero" fill-opacity="1"></path><path clip-path="url(#clip330)" d="M2290.02 1454.1 Q2286.41 1454.1 2284.59 1457.66 Q2282.78 1461.2 2282.78 1468.33 Q2282.78 1475.44 2284.59 1479.01 Q2286.41 1482.55 2290.02 1482.55 Q2293.66 1482.55 2295.46 1479.01 Q2297.29 1475.44 2297.29 1468.33 Q2297.29 1461.2 2295.46 1457.66 Q2293.66 1454.1 2290.02 1454.1 M2290.02 1450.39 Q2295.84 1450.39 2298.89 1455 Q2301.97 1459.58 2301.97 1468.33 Q2301.97 1477.06 2298.89 1481.67 Q2295.84 1486.25 2290.02 1486.25 Q2284.21 1486.25 2281.14 1481.67 Q2278.08 1477.06 2278.08 1468.33 Q2278.08 1459.58 2281.14 1455 Q2284.21 1450.39 2290.02 1450.39 Z" fill="#000000" fill-rule="nonzero" fill-opacity="1"></path><path clip-path="url(#clip330)" d="M2309.01 1451.02 L2331.23 1451.02 L2331.23 1453.01 L2318.68 1485.58 L2313.8 1485.58 L2325.6 1454.96 L2309.01 1454.96 L2309.01 1451.02 Z" fill="#000000" fill-rule="nonzero" fill-opacity="1"></path><path clip-path="url(#clip330)" d="M2340.35 1479.7 L2345.23 1479.7 L2345.23 1485.58 L2340.35 1485.58 L2340.35 1479.7 Z" fill="#000000" fill-rule="nonzero" fill-opacity="1"></path><path clip-path="url(#clip330)" d="M2355.46 1451.02 L2373.82 1451.02 L2373.82 1454.96 L2359.75 1454.96 L2359.75 1463.43 Q2360.77 1463.08 2361.78 1462.92 Q2362.8 1462.73 2363.82 1462.73 Q2369.61 1462.73 2372.99 1465.9 Q2376.37 1469.08 2376.37 1474.49 Q2376.37 1480.07 2372.89 1483.17 Q2369.42 1486.25 2363.1 1486.25 Q2360.93 1486.25 2358.66 1485.88 Q2356.41 1485.51 2354.01 1484.77 L2354.01 1480.07 Q2356.09 1481.2 2358.31 1481.76 Q2360.53 1482.32 2363.01 1482.32 Q2367.02 1482.32 2369.35 1480.21 Q2371.69 1478.1 2371.69 1474.49 Q2371.69 1470.88 2369.35 1468.77 Q2367.02 1466.67 2363.01 1466.67 Q2361.14 1466.67 2359.26 1467.08 Q2357.41 1467.5 2355.46 1468.38 L2355.46 1451.02 Z" fill="#000000" fill-rule="nonzero" fill-opacity="1"></path><path clip-path="url(#clip330)" d="M1143.98 1520.52 L1150.41 1520.52 L1150.41 1562.63 L1173.55 1562.63 L1173.55 1568.04 L1143.98 1568.04 L1143.98 1520.52 Z" fill="#000000" fill-rule="nonzero" fill-opacity="1"></path><path clip-path="url(#clip330)" d="M1192.71 1536.5 Q1188 1536.5 1185.26 1540.19 Q1182.52 1543.85 1182.52 1550.25 Q1182.52 1556.65 1185.23 1560.34 Q1187.97 1564 1192.71 1564 Q1197.39 1564 1200.13 1560.31 Q1202.86 1556.62 1202.86 1550.25 Q1202.86 1543.92 1200.13 1540.23 Q1197.39 1536.5 1192.71 1536.5 M1192.71 1531.54 Q1200.35 1531.54 1204.71 1536.5 Q1209.07 1541.47 1209.07 1550.25 Q1209.07 1559 1204.71 1564 Q1200.35 1568.97 1192.71 1568.97 Q1185.04 1568.97 1180.68 1564 Q1176.35 1559 1176.35 1550.25 Q1176.35 1541.47 1180.68 1536.5 Q1185.04 1531.54 1192.71 1531.54 Z" fill="#000000" fill-rule="nonzero" fill-opacity="1"></path><path clip-path="url(#clip330)" d="M1248.41 1546.53 L1248.41 1568.04 L1242.55 1568.04 L1242.55 1546.72 Q1242.55 1541.66 1240.58 1539.14 Q1238.61 1536.63 1234.66 1536.63 Q1229.92 1536.63 1227.18 1539.65 Q1224.44 1542.68 1224.44 1547.9 L1224.44 1568.04 L1218.55 1568.04 L1218.55 1532.4 L1224.44 1532.4 L1224.44 1537.93 Q1226.54 1534.72 1229.38 1533.13 Q1232.24 1531.54 1235.96 1531.54 Q1242.11 1531.54 1245.26 1535.36 Q1248.41 1539.14 1248.41 1546.53 Z" fill="#000000" fill-rule="nonzero" fill-opacity="1"></path><path clip-path="url(#clip330)" d="M1283.55 1549.81 Q1283.55 1543.44 1280.91 1539.94 Q1278.3 1536.44 1273.55 1536.44 Q1268.84 1536.44 1266.2 1539.94 Q1263.59 1543.44 1263.59 1549.81 Q1263.59 1556.14 1266.2 1559.64 Q1268.84 1563.14 1273.55 1563.14 Q1278.3 1563.14 1280.91 1559.64 Q1283.55 1556.14 1283.55 1549.81 M1289.4 1563.62 Q1289.4 1572.72 1285.36 1577.15 Q1281.32 1581.6 1272.98 1581.6 Q1269.89 1581.6 1267.16 1581.13 Q1264.42 1580.68 1261.84 1579.72 L1261.84 1574.03 Q1264.42 1575.43 1266.93 1576.1 Q1269.45 1576.76 1272.06 1576.76 Q1277.82 1576.76 1280.68 1573.74 Q1283.55 1570.75 1283.55 1564.67 L1283.55 1561.77 Q1281.73 1564.92 1278.9 1566.48 Q1276.07 1568.04 1272.12 1568.04 Q1265.56 1568.04 1261.55 1563.05 Q1257.54 1558.05 1257.54 1549.81 Q1257.54 1541.53 1261.55 1536.53 Q1265.56 1531.54 1272.12 1531.54 Q1276.07 1531.54 1278.9 1533.1 Q1281.73 1534.66 1283.55 1537.81 L1283.55 1532.4 L1289.4 1532.4 L1289.4 1563.62 Z" fill="#000000" fill-rule="nonzero" fill-opacity="1"></path><path clip-path="url(#clip330)" d="M1301.47 1532.4 L1307.32 1532.4 L1307.32 1568.04 L1301.47 1568.04 L1301.47 1532.4 M1301.47 1518.52 L1307.32 1518.52 L1307.32 1525.93 L1301.47 1525.93 L1301.47 1518.52 Z" fill="#000000" fill-rule="nonzero" fill-opacity="1"></path><path clip-path="url(#clip330)" d="M1325.37 1522.27 L1325.37 1532.4 L1337.43 1532.4 L1337.43 1536.95 L1325.37 1536.95 L1325.37 1556.3 Q1325.37 1560.66 1326.55 1561.9 Q1327.76 1563.14 1331.42 1563.14 L1337.43 1563.14 L1337.43 1568.04 L1331.42 1568.04 Q1324.64 1568.04 1322.06 1565.53 Q1319.48 1562.98 1319.48 1556.3 L1319.48 1536.95 L1315.19 1536.95 L1315.19 1532.4 L1319.48 1532.4 L1319.48 1522.27 L1325.37 1522.27 Z" fill="#000000" fill-rule="nonzero" fill-opacity="1"></path><path clip-path="url(#clip330)" d="M1344.53 1553.98 L1344.53 1532.4 L1350.39 1532.4 L1350.39 1553.75 Q1350.39 1558.81 1352.36 1561.36 Q1354.33 1563.87 1358.28 1563.87 Q1363.02 1563.87 1365.76 1560.85 Q1368.53 1557.83 1368.53 1552.61 L1368.53 1532.4 L1374.39 1532.4 L1374.39 1568.04 L1368.53 1568.04 L1368.53 1562.57 Q1366.4 1565.82 1363.56 1567.41 Q1360.76 1568.97 1357.04 1568.97 Q1350.9 1568.97 1347.71 1565.15 Q1344.53 1561.33 1344.53 1553.98 M1359.27 1531.54 L1359.27 1531.54 Z" fill="#000000" fill-rule="nonzero" fill-opacity="1"></path><path clip-path="url(#clip330)" d="M1409.91 1537.81 L1409.91 1518.52 L1415.76 1518.52 L1415.76 1568.04 L1409.91 1568.04 L1409.91 1562.7 Q1408.06 1565.88 1405.23 1567.44 Q1402.43 1568.97 1398.48 1568.97 Q1392.02 1568.97 1387.95 1563.81 Q1383.9 1558.65 1383.9 1550.25 Q1383.9 1541.85 1387.95 1536.69 Q1392.02 1531.54 1398.48 1531.54 Q1402.43 1531.54 1405.23 1533.1 Q1408.06 1534.62 1409.91 1537.81 M1389.95 1550.25 Q1389.95 1556.71 1392.59 1560.4 Q1395.27 1564.07 1399.91 1564.07 Q1404.56 1564.07 1407.23 1560.4 Q1409.91 1556.71 1409.91 1550.25 Q1409.91 1543.79 1407.23 1540.13 Q1404.56 1536.44 1399.91 1536.44 Q1395.27 1536.44 1392.59 1540.13 Q1389.95 1543.79 1389.95 1550.25 Z" fill="#000000" fill-rule="nonzero" fill-opacity="1"></path><path clip-path="url(#clip330)" d="M1458.32 1548.76 L1458.32 1551.62 L1431.39 1551.62 Q1431.77 1557.67 1435.02 1560.85 Q1438.3 1564 1444.12 1564 Q1447.5 1564 1450.65 1563.17 Q1453.83 1562.35 1456.95 1560.69 L1456.95 1566.23 Q1453.8 1567.57 1450.49 1568.27 Q1447.18 1568.97 1443.77 1568.97 Q1435.24 1568.97 1430.25 1564 Q1425.28 1559.04 1425.28 1550.57 Q1425.28 1541.82 1429.99 1536.69 Q1434.73 1531.54 1442.75 1531.54 Q1449.95 1531.54 1454.12 1536.18 Q1458.32 1540.8 1458.32 1548.76 M1452.46 1547.04 Q1452.4 1542.23 1449.76 1539.37 Q1447.15 1536.5 1442.82 1536.5 Q1437.92 1536.5 1434.96 1539.27 Q1432.03 1542.04 1431.58 1547.07 L1452.46 1547.04 Z" fill="#000000" fill-rule="nonzero" fill-opacity="1"></path><polyline clip-path="url(#clip330)" style="stroke:#000000; stroke-linecap:round; stroke-linejoin:round; stroke-width:4; stroke-opacity:1; fill:none" points="249.542,1423.18 249.542,123.472 "></polyline>
<polyline clip-path="url(#clip330)" style="stroke:#000000; stroke-linecap:round; stroke-linejoin:round; stroke-width:4; stroke-opacity:1; fill:none" points="249.542,1304.65 268.44,1304.65 "></polyline>
<polyline clip-path="url(#clip330)" style="stroke:#000000; stroke-linecap:round; stroke-linejoin:round; stroke-width:4; stroke-opacity:1; fill:none" points="249.542,1059.43 268.44,1059.43 "></polyline>
<polyline clip-path="url(#clip330)" style="stroke:#000000; stroke-linecap:round; stroke-linejoin:round; stroke-width:4; stroke-opacity:1; fill:none" points="249.542,814.197 268.44,814.197 "></polyline>
<polyline clip-path="url(#clip330)" style="stroke:#000000; stroke-linecap:round; stroke-linejoin:round; stroke-width:4; stroke-opacity:1; fill:none" points="249.542,568.969 268.44,568.969 "></polyline>
<polyline clip-path="url(#clip330)" style="stroke:#000000; stroke-linecap:round; stroke-linejoin:round; stroke-width:4; stroke-opacity:1; fill:none" points="249.542,323.742 268.44,323.742 "></polyline>
<path clip-path="url(#clip330)" d="M131.598 1303.3 Q134.954 1304.02 136.829 1306.28 Q138.728 1308.55 138.728 1311.89 Q138.728 1317 135.209 1319.8 Q131.691 1322.6 125.209 1322.6 Q123.033 1322.6 120.718 1322.16 Q118.427 1321.75 115.973 1320.89 L115.973 1316.38 Q117.918 1317.51 120.232 1318.09 Q122.547 1318.67 125.07 1318.67 Q129.468 1318.67 131.76 1316.93 Q134.075 1315.2 134.075 1311.89 Q134.075 1308.83 131.922 1307.12 Q129.792 1305.38 125.973 1305.38 L121.945 1305.38 L121.945 1301.54 L126.158 1301.54 Q129.607 1301.54 131.436 1300.17 Q133.265 1298.79 133.265 1296.19 Q133.265 1293.53 131.367 1292.12 Q129.492 1290.68 125.973 1290.68 Q124.052 1290.68 121.853 1291.1 Q119.654 1291.52 117.015 1292.4 L117.015 1288.23 Q119.677 1287.49 121.992 1287.12 Q124.33 1286.75 126.39 1286.75 Q131.714 1286.75 134.816 1289.18 Q137.917 1291.59 137.917 1295.71 Q137.917 1298.58 136.274 1300.57 Q134.63 1302.53 131.598 1303.3 Z" fill="#000000" fill-rule="nonzero" fill-opacity="1"></path><path clip-path="url(#clip330)" d="M147.64 1287.37 L165.996 1287.37 L165.996 1291.31 L151.922 1291.31 L151.922 1299.78 Q152.941 1299.43 153.959 1299.27 Q154.978 1299.09 155.996 1299.09 Q161.783 1299.09 165.163 1302.26 Q168.542 1305.43 168.542 1310.85 Q168.542 1316.42 165.07 1319.53 Q161.598 1322.6 155.278 1322.6 Q153.103 1322.6 150.834 1322.23 Q148.589 1321.86 146.181 1321.12 L146.181 1316.42 Q148.265 1317.56 150.487 1318.11 Q152.709 1318.67 155.186 1318.67 Q159.19 1318.67 161.528 1316.56 Q163.866 1314.46 163.866 1310.85 Q163.866 1307.23 161.528 1305.13 Q159.19 1303.02 155.186 1303.02 Q153.311 1303.02 151.436 1303.44 Q149.584 1303.85 147.64 1304.73 L147.64 1287.37 Z" fill="#000000" fill-rule="nonzero" fill-opacity="1"></path><path clip-path="url(#clip330)" d="M177.755 1316.05 L182.639 1316.05 L182.639 1321.93 L177.755 1321.93 L177.755 1316.05 Z" fill="#000000" fill-rule="nonzero" fill-opacity="1"></path><path clip-path="url(#clip330)" d="M193.635 1318 L201.274 1318 L201.274 1291.63 L192.963 1293.3 L192.963 1289.04 L201.227 1287.37 L205.903 1287.37 L205.903 1318 L213.542 1318 L213.542 1321.93 L193.635 1321.93 L193.635 1318 Z" fill="#000000" fill-rule="nonzero" fill-opacity="1"></path><path clip-path="url(#clip330)" d="M129.885 1058.07 Q133.242 1058.79 135.117 1061.06 Q137.015 1063.33 137.015 1066.66 Q137.015 1071.77 133.496 1074.58 Q129.978 1077.38 123.496 1077.38 Q121.32 1077.38 119.006 1076.94 Q116.714 1076.52 114.26 1075.66 L114.26 1071.15 Q116.205 1072.28 118.519 1072.86 Q120.834 1073.44 123.357 1073.44 Q127.755 1073.44 130.047 1071.71 Q132.362 1069.97 132.362 1066.66 Q132.362 1063.6 130.209 1061.89 Q128.08 1060.15 124.26 1060.15 L120.232 1060.15 L120.232 1056.31 L124.445 1056.31 Q127.894 1056.31 129.723 1054.95 Q131.552 1053.56 131.552 1050.96 Q131.552 1048.3 129.654 1046.89 Q127.779 1045.46 124.26 1045.46 Q122.339 1045.46 120.14 1045.87 Q117.941 1046.29 115.302 1047.17 L115.302 1043 Q117.964 1042.26 120.279 1041.89 Q122.617 1041.52 124.677 1041.52 Q130.001 1041.52 133.103 1043.95 Q136.204 1046.36 136.204 1050.48 Q136.204 1053.35 134.561 1055.34 Q132.917 1057.31 129.885 1058.07 Z" fill="#000000" fill-rule="nonzero" fill-opacity="1"></path><path clip-path="url(#clip330)" d="M145.927 1042.15 L164.283 1042.15 L164.283 1046.08 L150.209 1046.08 L150.209 1054.55 Q151.228 1054.21 152.246 1054.04 Q153.265 1053.86 154.283 1053.86 Q160.07 1053.86 163.45 1057.03 Q166.829 1060.2 166.829 1065.62 Q166.829 1071.2 163.357 1074.3 Q159.885 1077.38 153.566 1077.38 Q151.39 1077.38 149.121 1077.01 Q146.876 1076.64 144.468 1075.89 L144.468 1071.2 Q146.552 1072.33 148.774 1072.89 Q150.996 1073.44 153.473 1073.44 Q157.478 1073.44 159.815 1071.33 Q162.153 1069.23 162.153 1065.62 Q162.153 1062.01 159.815 1059.9 Q157.478 1057.79 153.473 1057.79 Q151.598 1057.79 149.723 1058.21 Q147.871 1058.63 145.927 1059.51 L145.927 1042.15 Z" fill="#000000" fill-rule="nonzero" fill-opacity="1"></path><path clip-path="url(#clip330)" d="M176.042 1070.83 L180.926 1070.83 L180.926 1076.71 L176.042 1076.71 L176.042 1070.83 Z" fill="#000000" fill-rule="nonzero" fill-opacity="1"></path><path clip-path="url(#clip330)" d="M203.959 1046.22 L192.153 1064.67 L203.959 1064.67 L203.959 1046.22 M202.732 1042.15 L208.612 1042.15 L208.612 1064.67 L213.542 1064.67 L213.542 1068.56 L208.612 1068.56 L208.612 1076.71 L203.959 1076.71 L203.959 1068.56 L188.357 1068.56 L188.357 1064.04 L202.732 1042.15 Z" fill="#000000" fill-rule="nonzero" fill-opacity="1"></path><path clip-path="url(#clip330)" d="M131.274 812.843 Q134.63 813.561 136.505 815.829 Q138.404 818.098 138.404 821.431 Q138.404 826.547 134.885 829.348 Q131.367 832.149 124.885 832.149 Q122.709 832.149 120.394 831.709 Q118.103 831.292 115.649 830.436 L115.649 825.922 Q117.593 827.056 119.908 827.635 Q122.223 828.213 124.746 828.213 Q129.144 828.213 131.436 826.477 Q133.751 824.741 133.751 821.431 Q133.751 818.376 131.598 816.663 Q129.468 814.926 125.649 814.926 L121.621 814.926 L121.621 811.084 L125.834 811.084 Q129.283 811.084 131.112 809.718 Q132.941 808.329 132.941 805.737 Q132.941 803.075 131.042 801.663 Q129.167 800.227 125.649 800.227 Q123.728 800.227 121.529 800.644 Q119.33 801.061 116.691 801.94 L116.691 797.774 Q119.353 797.033 121.668 796.663 Q124.005 796.292 126.066 796.292 Q131.39 796.292 134.492 798.723 Q137.593 801.13 137.593 805.251 Q137.593 808.121 135.95 810.112 Q134.306 812.079 131.274 812.843 Z" fill="#000000" fill-rule="nonzero" fill-opacity="1"></path><path clip-path="url(#clip330)" d="M147.316 796.917 L165.672 796.917 L165.672 800.852 L151.598 800.852 L151.598 809.325 Q152.616 808.977 153.635 808.815 Q154.653 808.63 155.672 808.63 Q161.459 808.63 164.839 811.801 Q168.218 814.973 168.218 820.389 Q168.218 825.968 164.746 829.07 Q161.274 832.149 154.954 832.149 Q152.778 832.149 150.51 831.778 Q148.265 831.408 145.857 830.667 L145.857 825.968 Q147.941 827.102 150.163 827.658 Q152.385 828.213 154.862 828.213 Q158.866 828.213 161.204 826.107 Q163.542 824 163.542 820.389 Q163.542 816.778 161.204 814.672 Q158.866 812.565 154.862 812.565 Q152.987 812.565 151.112 812.982 Q149.26 813.399 147.316 814.278 L147.316 796.917 Z" fill="#000000" fill-rule="nonzero" fill-opacity="1"></path><path clip-path="url(#clip330)" d="M177.431 825.598 L182.315 825.598 L182.315 831.477 L177.431 831.477 L177.431 825.598 Z" fill="#000000" fill-rule="nonzero" fill-opacity="1"></path><path clip-path="url(#clip330)" d="M191.32 796.917 L213.542 796.917 L213.542 798.908 L200.996 831.477 L196.112 831.477 L207.917 800.852 L191.32 800.852 L191.32 796.917 Z" fill="#000000" fill-rule="nonzero" fill-opacity="1"></path><path clip-path="url(#clip330)" d="M130.371 567.615 Q133.728 568.333 135.603 570.601 Q137.501 572.87 137.501 576.203 Q137.501 581.319 133.982 584.12 Q130.464 586.921 123.982 586.921 Q121.806 586.921 119.492 586.481 Q117.2 586.064 114.746 585.208 L114.746 580.694 Q116.691 581.828 119.006 582.407 Q121.32 582.986 123.843 582.986 Q128.242 582.986 130.533 581.249 Q132.848 579.513 132.848 576.203 Q132.848 573.148 130.695 571.435 Q128.566 569.699 124.746 569.699 L120.718 569.699 L120.718 565.856 L124.931 565.856 Q128.38 565.856 130.209 564.49 Q132.038 563.101 132.038 560.509 Q132.038 557.847 130.14 556.435 Q128.265 555 124.746 555 Q122.825 555 120.626 555.416 Q118.427 555.833 115.788 556.713 L115.788 552.546 Q118.45 551.805 120.765 551.435 Q123.103 551.064 125.163 551.064 Q130.487 551.064 133.589 553.495 Q136.691 555.902 136.691 560.023 Q136.691 562.893 135.047 564.884 Q133.404 566.851 130.371 567.615 Z" fill="#000000" fill-rule="nonzero" fill-opacity="1"></path><path clip-path="url(#clip330)" d="M156.945 567.106 Q153.797 567.106 151.945 569.259 Q150.116 571.412 150.116 575.162 Q150.116 578.888 151.945 581.064 Q153.797 583.217 156.945 583.217 Q160.093 583.217 161.922 581.064 Q163.774 578.888 163.774 575.162 Q163.774 571.412 161.922 569.259 Q160.093 567.106 156.945 567.106 M166.227 552.453 L166.227 556.713 Q164.468 555.879 162.663 555.439 Q160.88 555 159.121 555 Q154.491 555 152.038 558.125 Q149.607 561.25 149.26 567.569 Q150.626 565.555 152.686 564.49 Q154.746 563.402 157.223 563.402 Q162.431 563.402 165.44 566.574 Q168.473 569.722 168.473 575.162 Q168.473 580.486 165.325 583.703 Q162.177 586.921 156.945 586.921 Q150.95 586.921 147.778 582.337 Q144.607 577.731 144.607 569.004 Q144.607 560.81 148.496 555.949 Q152.385 551.064 158.936 551.064 Q160.695 551.064 162.477 551.412 Q164.283 551.759 166.227 552.453 Z" fill="#000000" fill-rule="nonzero" fill-opacity="1"></path><path clip-path="url(#clip330)" d="M176.528 580.37 L181.413 580.37 L181.413 586.249 L176.528 586.249 L176.528 580.37 Z" fill="#000000" fill-rule="nonzero" fill-opacity="1"></path><path clip-path="url(#clip330)" d="M201.598 554.768 Q197.987 554.768 196.158 558.333 Q194.352 561.875 194.352 569.004 Q194.352 576.111 196.158 579.675 Q197.987 583.217 201.598 583.217 Q205.232 583.217 207.037 579.675 Q208.866 576.111 208.866 569.004 Q208.866 561.875 207.037 558.333 Q205.232 554.768 201.598 554.768 M201.598 551.064 Q207.408 551.064 210.463 555.671 Q213.542 560.254 213.542 569.004 Q213.542 577.731 210.463 582.337 Q207.408 586.921 201.598 586.921 Q195.787 586.921 192.709 582.337 Q189.653 577.731 189.653 569.004 Q189.653 560.254 192.709 555.671 Q195.787 551.064 201.598 551.064 Z" fill="#000000" fill-rule="nonzero" fill-opacity="1"></path><path clip-path="url(#clip330)" d="M131.019 322.387 Q134.376 323.105 136.251 325.373 Q138.149 327.642 138.149 330.975 Q138.149 336.091 134.63 338.892 Q131.112 341.693 124.63 341.693 Q122.455 341.693 120.14 341.253 Q117.848 340.836 115.394 339.98 L115.394 335.466 Q117.339 336.6 119.654 337.179 Q121.968 337.758 124.492 337.758 Q128.89 337.758 131.181 336.022 Q133.496 334.285 133.496 330.975 Q133.496 327.92 131.343 326.207 Q129.214 324.471 125.394 324.471 L121.367 324.471 L121.367 320.628 L125.58 320.628 Q129.029 320.628 130.857 319.262 Q132.686 317.874 132.686 315.281 Q132.686 312.619 130.788 311.207 Q128.913 309.772 125.394 309.772 Q123.473 309.772 121.274 310.188 Q119.075 310.605 116.436 311.485 L116.436 307.318 Q119.098 306.577 121.413 306.207 Q123.751 305.837 125.811 305.837 Q131.135 305.837 134.237 308.267 Q137.339 310.674 137.339 314.795 Q137.339 317.665 135.695 319.656 Q134.052 321.624 131.019 322.387 Z" fill="#000000" fill-rule="nonzero" fill-opacity="1"></path><path clip-path="url(#clip330)" d="M157.593 321.878 Q154.445 321.878 152.593 324.031 Q150.765 326.184 150.765 329.934 Q150.765 333.66 152.593 335.836 Q154.445 337.989 157.593 337.989 Q160.741 337.989 162.57 335.836 Q164.422 333.66 164.422 329.934 Q164.422 326.184 162.57 324.031 Q160.741 321.878 157.593 321.878 M166.876 307.225 L166.876 311.485 Q165.116 310.651 163.311 310.212 Q161.528 309.772 159.769 309.772 Q155.14 309.772 152.686 312.897 Q150.255 316.022 149.908 322.341 Q151.274 320.327 153.334 319.262 Q155.394 318.174 157.871 318.174 Q163.079 318.174 166.089 321.346 Q169.121 324.494 169.121 329.934 Q169.121 335.258 165.973 338.475 Q162.825 341.693 157.593 341.693 Q151.598 341.693 148.427 337.11 Q145.255 332.503 145.255 323.776 Q145.255 315.582 149.144 310.721 Q153.033 305.837 159.584 305.837 Q161.343 305.837 163.126 306.184 Q164.931 306.531 166.876 307.225 Z" fill="#000000" fill-rule="nonzero" fill-opacity="1"></path><path clip-path="url(#clip330)" d="M177.176 335.142 L182.061 335.142 L182.061 341.022 L177.176 341.022 L177.176 335.142 Z" fill="#000000" fill-rule="nonzero" fill-opacity="1"></path><path clip-path="url(#clip330)" d="M206.412 322.387 Q209.769 323.105 211.644 325.373 Q213.542 327.642 213.542 330.975 Q213.542 336.091 210.024 338.892 Q206.505 341.693 200.024 341.693 Q197.848 341.693 195.533 341.253 Q193.241 340.836 190.788 339.98 L190.788 335.466 Q192.732 336.6 195.047 337.179 Q197.362 337.758 199.885 337.758 Q204.283 337.758 206.574 336.022 Q208.889 334.285 208.889 330.975 Q208.889 327.92 206.737 326.207 Q204.607 324.471 200.787 324.471 L196.76 324.471 L196.76 320.628 L200.973 320.628 Q204.422 320.628 206.25 319.262 Q208.079 317.874 208.079 315.281 Q208.079 312.619 206.181 311.207 Q204.306 309.772 200.787 309.772 Q198.866 309.772 196.667 310.188 Q194.468 310.605 191.829 311.485 L191.829 307.318 Q194.491 306.577 196.806 306.207 Q199.144 305.837 201.204 305.837 Q206.528 305.837 209.63 308.267 Q212.732 310.674 212.732 314.795 Q212.732 317.665 211.088 319.656 Q209.445 321.624 206.412 322.387 Z" fill="#000000" fill-rule="nonzero" fill-opacity="1"></path><path clip-path="url(#clip330)" d="M16.4842 902.534 L16.4842 896.105 L58.5933 896.105 L58.5933 872.965 L64.0042 872.965 L64.0042 902.534 L16.4842 902.534 Z" fill="#000000" fill-rule="nonzero" fill-opacity="1"></path><path clip-path="url(#clip330)" d="M46.0847 850.271 Q46.0847 857.369 47.7079 860.106 Q49.3312 862.844 53.2461 862.844 Q56.3653 862.844 58.2114 860.807 Q60.0256 858.738 60.0256 855.205 Q60.0256 850.335 56.5881 847.407 Q53.1188 844.447 47.3897 844.447 L46.0847 844.447 L46.0847 850.271 M43.6657 838.59 L64.0042 838.59 L64.0042 844.447 L58.5933 844.447 Q61.8398 846.452 63.3994 849.444 Q64.9272 852.436 64.9272 856.764 Q64.9272 862.239 61.8716 865.486 Q58.7843 868.7 53.6281 868.7 Q47.6125 868.7 44.5569 864.69 Q41.5014 860.648 41.5014 852.659 L41.5014 844.447 L40.9285 844.447 Q36.8862 844.447 34.6901 847.12 Q32.4621 849.762 32.4621 854.568 Q32.4621 857.624 33.1941 860.52 Q33.9262 863.417 35.3903 866.09 L29.9795 866.09 Q28.7381 862.876 28.1334 859.852 Q27.4968 856.828 27.4968 853.964 Q27.4968 846.229 31.5072 842.41 Q35.5176 838.59 43.6657 838.59 Z" fill="#000000" fill-rule="nonzero" fill-opacity="1"></path><path clip-path="url(#clip330)" d="M18.2347 820.735 L28.3562 820.735 L28.3562 808.672 L32.9077 808.672 L32.9077 820.735 L52.2594 820.735 Q56.6199 820.735 57.8613 819.557 Q59.1026 818.347 59.1026 814.687 L59.1026 808.672 L64.0042 808.672 L64.0042 814.687 Q64.0042 821.467 61.4897 824.045 Q58.9434 826.623 52.2594 826.623 L32.9077 826.623 L32.9077 830.92 L28.3562 830.92 L28.3562 826.623 L18.2347 826.623 L18.2347 820.735 Z" fill="#000000" fill-rule="nonzero" fill-opacity="1"></path><path clip-path="url(#clip330)" d="M28.3562 800.969 L28.3562 795.113 L64.0042 795.113 L64.0042 800.969 L28.3562 800.969 M14.479 800.969 L14.479 795.113 L21.895 795.113 L21.895 800.969 L14.479 800.969 Z" fill="#000000" fill-rule="nonzero" fill-opacity="1"></path><path clip-path="url(#clip330)" d="M18.2347 777.066 L28.3562 777.066 L28.3562 765.003 L32.9077 765.003 L32.9077 777.066 L52.2594 777.066 Q56.6199 777.066 57.8613 775.888 Q59.1026 774.679 59.1026 771.018 L59.1026 765.003 L64.0042 765.003 L64.0042 771.018 Q64.0042 777.798 61.4897 780.376 Q58.9434 782.954 52.2594 782.954 L32.9077 782.954 L32.9077 787.251 L28.3562 787.251 L28.3562 782.954 L18.2347 782.954 L18.2347 777.066 Z" fill="#000000" fill-rule="nonzero" fill-opacity="1"></path><path clip-path="url(#clip330)" d="M49.9359 757.905 L28.3562 757.905 L28.3562 752.049 L49.7131 752.049 Q54.7739 752.049 57.3202 750.075 Q59.8346 748.102 59.8346 744.155 Q59.8346 739.413 56.8109 736.675 Q53.7872 733.906 48.5673 733.906 L28.3562 733.906 L28.3562 728.05 L64.0042 728.05 L64.0042 733.906 L58.5296 733.906 Q61.7762 736.039 63.3676 738.872 Q64.9272 741.673 64.9272 745.396 Q64.9272 751.539 61.1078 754.722 Q57.2883 757.905 49.9359 757.905 M27.4968 743.168 L27.4968 743.168 Z" fill="#000000" fill-rule="nonzero" fill-opacity="1"></path><path clip-path="url(#clip330)" d="M33.7671 692.529 L14.479 692.529 L14.479 686.673 L64.0042 686.673 L64.0042 692.529 L58.657 692.529 Q61.8398 694.375 63.3994 697.208 Q64.9272 700.009 64.9272 703.956 Q64.9272 710.417 59.771 714.491 Q54.6147 718.533 46.212 718.533 Q37.8093 718.533 32.6531 714.491 Q27.4968 710.417 27.4968 703.956 Q27.4968 700.009 29.0564 697.208 Q30.5842 694.375 33.7671 692.529 M46.212 712.486 Q52.6732 712.486 56.3653 709.844 Q60.0256 707.17 60.0256 702.523 Q60.0256 697.876 56.3653 695.203 Q52.6732 692.529 46.212 692.529 Q39.7508 692.529 36.0905 695.203 Q32.3984 697.876 32.3984 702.523 Q32.3984 707.17 36.0905 709.844 Q39.7508 712.486 46.212 712.486 Z" fill="#000000" fill-rule="nonzero" fill-opacity="1"></path><path clip-path="url(#clip330)" d="M44.7161 644.118 L47.5806 644.118 L47.5806 671.045 Q53.6281 670.663 56.8109 667.417 Q59.9619 664.138 59.9619 658.314 Q59.9619 654.94 59.1344 651.789 Q58.3069 648.606 56.6518 645.487 L62.1899 645.487 Q63.5267 648.638 64.227 651.948 Q64.9272 655.258 64.9272 658.664 Q64.9272 667.194 59.9619 672.191 Q54.9967 677.156 46.5303 677.156 Q37.7774 677.156 32.6531 672.445 Q27.4968 667.703 27.4968 659.682 Q27.4968 652.489 32.1438 648.319 Q36.7589 644.118 44.7161 644.118 M42.9973 649.975 Q38.1912 650.038 35.3266 652.68 Q32.4621 655.29 32.4621 659.619 Q32.4621 664.52 35.2312 667.48 Q38.0002 670.408 43.0292 670.854 L42.9973 649.975 Z" fill="#000000" fill-rule="nonzero" fill-opacity="1"></path><path clip-path="url(#clip330)" d="M933.347 16.7545 L933.347 25.383 Q929.215 21.5346 924.516 19.6307 Q919.858 17.7268 914.591 17.7268 Q904.221 17.7268 898.712 24.0867 Q893.203 30.4061 893.203 42.3968 Q893.203 54.3469 898.712 60.7069 Q904.221 67.0263 914.591 67.0263 Q919.858 67.0263 924.516 65.1223 Q929.215 63.2184 933.347 59.3701 L933.347 67.9175 Q929.053 70.8341 924.233 72.2924 Q919.453 73.7508 914.105 73.7508 Q900.373 73.7508 892.473 65.3654 Q884.574 56.9395 884.574 42.3968 Q884.574 27.8135 892.473 19.4281 Q900.373 11.0023 914.105 11.0023 Q919.534 11.0023 924.314 12.4606 Q929.134 13.8784 933.347 16.7545 Z" fill="#000000" fill-rule="nonzero" fill-opacity="1"></path><path clip-path="url(#clip330)" d="M945.662 9.54393 L953.116 9.54393 L953.116 72.576 L945.662 72.576 L945.662 9.54393 Z" fill="#000000" fill-rule="nonzero" fill-opacity="1"></path><path clip-path="url(#clip330)" d="M967.942 54.671 L967.942 27.2059 L975.396 27.2059 L975.396 54.3874 Q975.396 60.8284 977.907 64.0691 Q980.419 67.2693 985.442 67.2693 Q991.478 67.2693 994.961 63.421 Q998.486 59.5726 998.486 52.9291 L998.486 27.2059 L1005.94 27.2059 L1005.94 72.576 L998.486 72.576 L998.486 65.6084 Q995.772 69.7404 992.166 71.7658 Q988.601 73.7508 983.862 73.7508 Q976.044 73.7508 971.993 68.8897 Q967.942 64.0286 967.942 54.671 M986.698 26.1121 L986.698 26.1121 Z" fill="#000000" fill-rule="nonzero" fill-opacity="1"></path><path clip-path="url(#clip330)" d="M1050.22 28.5427 L1050.22 35.5912 Q1047.06 33.9709 1043.65 33.1607 Q1040.25 32.3505 1036.6 32.3505 Q1031.05 32.3505 1028.26 34.0519 Q1025.51 35.7533 1025.51 39.156 Q1025.51 41.7486 1027.49 43.2475 Q1029.48 44.7058 1035.47 46.0426 L1038.02 46.6097 Q1045.96 48.3111 1049.28 51.4303 Q1052.65 54.509 1052.65 60.0587 Q1052.65 66.3781 1047.62 70.0644 Q1042.64 73.7508 1033.89 73.7508 Q1030.24 73.7508 1026.27 73.0216 Q1022.35 72.3329 1017.97 70.9151 L1017.97 63.2184 Q1022.1 65.3654 1026.11 66.4591 Q1030.12 67.5124 1034.05 67.5124 Q1039.32 67.5124 1042.15 65.73 Q1044.99 63.9071 1044.99 60.6258 Q1044.99 57.5877 1042.92 55.9673 Q1040.9 54.3469 1033.97 52.8481 L1031.38 52.2405 Q1024.45 50.7821 1021.37 47.7845 Q1018.29 44.7463 1018.29 39.4801 Q1018.29 33.0797 1022.83 29.5959 Q1027.37 26.1121 1035.71 26.1121 Q1039.85 26.1121 1043.49 26.7198 Q1047.14 27.3274 1050.22 28.5427 Z" fill="#000000" fill-rule="nonzero" fill-opacity="1"></path><path clip-path="url(#clip330)" d="M1071.89 14.324 L1071.89 27.2059 L1087.24 27.2059 L1087.24 32.9987 L1071.89 32.9987 L1071.89 57.6282 Q1071.89 63.1779 1073.39 64.7578 Q1074.93 66.3376 1079.58 66.3376 L1087.24 66.3376 L1087.24 72.576 L1079.58 72.576 Q1070.96 72.576 1067.68 69.3758 Q1064.39 66.1351 1064.39 57.6282 L1064.39 32.9987 L1058.93 32.9987 L1058.93 27.2059 L1064.39 27.2059 L1064.39 14.324 L1071.89 14.324 Z" fill="#000000" fill-rule="nonzero" fill-opacity="1"></path><path clip-path="url(#clip330)" d="M1135.85 48.0275 L1135.85 51.6733 L1101.58 51.6733 Q1102.07 59.3701 1106.2 63.421 Q1110.37 67.4314 1117.78 67.4314 Q1122.08 67.4314 1126.09 66.3781 Q1130.14 65.3249 1134.11 63.2184 L1134.11 70.267 Q1130.1 71.9684 1125.89 72.8596 Q1121.67 73.7508 1117.34 73.7508 Q1106.48 73.7508 1100.12 67.4314 Q1093.8 61.1119 1093.8 50.3365 Q1093.8 39.1965 1099.8 32.6746 Q1105.83 26.1121 1116.04 26.1121 Q1125.2 26.1121 1130.5 32.0264 Q1135.85 37.9003 1135.85 48.0275 M1128.4 45.84 Q1128.32 39.7232 1124.95 36.0774 Q1121.63 32.4315 1116.12 32.4315 Q1109.89 32.4315 1106.12 35.9558 Q1102.39 39.4801 1101.82 45.8805 L1128.4 45.84 Z" fill="#000000" fill-rule="nonzero" fill-opacity="1"></path><path clip-path="url(#clip330)" d="M1174.38 34.1734 Q1173.12 33.4443 1171.62 33.1202 Q1170.16 32.7556 1168.38 32.7556 Q1162.06 32.7556 1158.66 36.8875 Q1155.3 40.9789 1155.3 48.6757 L1155.3 72.576 L1147.8 72.576 L1147.8 27.2059 L1155.3 27.2059 L1155.3 34.2544 Q1157.65 30.1225 1161.41 28.1376 Q1165.18 26.1121 1170.57 26.1121 Q1171.34 26.1121 1172.27 26.2337 Q1173.2 26.3147 1174.34 26.5172 L1174.38 34.1734 Z" fill="#000000" fill-rule="nonzero" fill-opacity="1"></path><path clip-path="url(#clip330)" d="M1224.49 72.576 L1201.4 12.096 L1209.94 12.096 L1229.1 63.0159 L1248.3 12.096 L1256.81 12.096 L1233.76 72.576 L1224.49 72.576 Z" fill="#000000" fill-rule="nonzero" fill-opacity="1"></path><path clip-path="url(#clip330)" d="M1263.5 27.2059 L1270.95 27.2059 L1270.95 72.576 L1263.5 72.576 L1263.5 27.2059 M1263.5 9.54393 L1270.95 9.54393 L1270.95 18.9825 L1263.5 18.9825 L1263.5 9.54393 Z" fill="#000000" fill-rule="nonzero" fill-opacity="1"></path><path clip-path="url(#clip330)" d="M1315.47 28.5427 L1315.47 35.5912 Q1312.31 33.9709 1308.91 33.1607 Q1305.5 32.3505 1301.86 32.3505 Q1296.31 32.3505 1293.51 34.0519 Q1290.76 35.7533 1290.76 39.156 Q1290.76 41.7486 1292.74 43.2475 Q1294.73 44.7058 1300.72 46.0426 L1303.28 46.6097 Q1311.22 48.3111 1314.54 51.4303 Q1317.9 54.509 1317.9 60.0587 Q1317.9 66.3781 1312.88 70.0644 Q1307.89 73.7508 1299.14 73.7508 Q1295.5 73.7508 1291.53 73.0216 Q1287.6 72.3329 1283.22 70.9151 L1283.22 63.2184 Q1287.36 65.3654 1291.37 66.4591 Q1295.38 67.5124 1299.31 67.5124 Q1304.57 67.5124 1307.41 65.73 Q1310.24 63.9071 1310.24 60.6258 Q1310.24 57.5877 1308.18 55.9673 Q1306.15 54.3469 1299.22 52.8481 L1296.63 52.2405 Q1289.71 50.7821 1286.63 47.7845 Q1283.55 44.7463 1283.55 39.4801 Q1283.55 33.0797 1288.08 29.5959 Q1292.62 26.1121 1300.97 26.1121 Q1305.1 26.1121 1308.74 26.7198 Q1312.39 27.3274 1315.47 28.5427 Z" fill="#000000" fill-rule="nonzero" fill-opacity="1"></path><path clip-path="url(#clip330)" d="M1329 54.671 L1329 27.2059 L1336.45 27.2059 L1336.45 54.3874 Q1336.45 60.8284 1338.96 64.0691 Q1341.48 67.2693 1346.5 67.2693 Q1352.53 67.2693 1356.02 63.421 Q1359.54 59.5726 1359.54 52.9291 L1359.54 27.2059 L1367 27.2059 L1367 72.576 L1359.54 72.576 L1359.54 65.6084 Q1356.83 69.7404 1353.22 71.7658 Q1349.66 73.7508 1344.92 73.7508 Q1337.1 73.7508 1333.05 68.8897 Q1329 64.0286 1329 54.671 M1347.75 26.1121 L1347.75 26.1121 Z" fill="#000000" fill-rule="nonzero" fill-opacity="1"></path><path clip-path="url(#clip330)" d="M1402.97 49.7694 Q1393.93 49.7694 1390.45 51.8354 Q1386.97 53.9013 1386.97 58.8839 Q1386.97 62.8538 1389.56 65.2034 Q1392.19 67.5124 1396.69 67.5124 Q1402.89 67.5124 1406.61 63.1374 Q1410.38 58.7219 1410.38 51.4303 L1410.38 49.7694 L1402.97 49.7694 M1417.84 46.6907 L1417.84 72.576 L1410.38 72.576 L1410.38 65.6895 Q1407.83 69.8214 1404.02 71.8063 Q1400.21 73.7508 1394.7 73.7508 Q1387.74 73.7508 1383.61 69.8619 Q1379.51 65.9325 1379.51 59.3701 Q1379.51 51.7138 1384.62 47.825 Q1389.76 43.9361 1399.93 43.9361 L1410.38 43.9361 L1410.38 43.2069 Q1410.38 38.0623 1406.98 35.2672 Q1403.62 32.4315 1397.5 32.4315 Q1393.61 32.4315 1389.92 33.3632 Q1386.24 34.295 1382.84 36.1584 L1382.84 29.2718 Q1386.93 27.692 1390.78 26.9223 Q1394.62 26.1121 1398.27 26.1121 Q1408.11 26.1121 1412.97 31.2163 Q1417.84 36.3204 1417.84 46.6907 Z" fill="#000000" fill-rule="nonzero" fill-opacity="1"></path><path clip-path="url(#clip330)" d="M1433.19 9.54393 L1440.64 9.54393 L1440.64 72.576 L1433.19 72.576 L1433.19 9.54393 Z" fill="#000000" fill-rule="nonzero" fill-opacity="1"></path><path clip-path="url(#clip330)" d="M1456.24 27.2059 L1463.69 27.2059 L1463.69 72.576 L1456.24 72.576 L1456.24 27.2059 M1456.24 9.54393 L1463.69 9.54393 L1463.69 18.9825 L1456.24 18.9825 L1456.24 9.54393 Z" fill="#000000" fill-rule="nonzero" fill-opacity="1"></path><path clip-path="url(#clip330)" d="M1476.05 27.2059 L1511.45 27.2059 L1511.45 34.0114 L1483.42 66.6212 L1511.45 66.6212 L1511.45 72.576 L1475.03 72.576 L1475.03 65.7705 L1503.07 33.1607 L1476.05 33.1607 L1476.05 27.2059 Z" fill="#000000" fill-rule="nonzero" fill-opacity="1"></path><path clip-path="url(#clip330)" d="M1543.45 49.7694 Q1534.42 49.7694 1530.94 51.8354 Q1527.45 53.9013 1527.45 58.8839 Q1527.45 62.8538 1530.05 65.2034 Q1532.68 67.5124 1537.17 67.5124 Q1543.37 67.5124 1547.1 63.1374 Q1550.87 58.7219 1550.87 51.4303 L1550.87 49.7694 L1543.45 49.7694 M1558.32 46.6907 L1558.32 72.576 L1550.87 72.576 L1550.87 65.6895 Q1548.31 69.8214 1544.51 71.8063 Q1540.7 73.7508 1535.19 73.7508 Q1528.22 73.7508 1524.09 69.8619 Q1520 65.9325 1520 59.3701 Q1520 51.7138 1525.1 47.825 Q1530.25 43.9361 1540.42 43.9361 L1550.87 43.9361 L1550.87 43.2069 Q1550.87 38.0623 1547.46 35.2672 Q1544.1 32.4315 1537.99 32.4315 Q1534.1 32.4315 1530.41 33.3632 Q1526.72 34.295 1523.32 36.1584 L1523.32 29.2718 Q1527.41 27.692 1531.26 26.9223 Q1535.11 26.1121 1538.75 26.1121 Q1548.6 26.1121 1553.46 31.2163 Q1558.32 36.3204 1558.32 46.6907 Z" fill="#000000" fill-rule="nonzero" fill-opacity="1"></path><path clip-path="url(#clip330)" d="M1581.05 14.324 L1581.05 27.2059 L1596.4 27.2059 L1596.4 32.9987 L1581.05 32.9987 L1581.05 57.6282 Q1581.05 63.1779 1582.55 64.7578 Q1584.08 66.3376 1588.74 66.3376 L1596.4 66.3376 L1596.4 72.576 L1588.74 72.576 Q1580.11 72.576 1576.83 69.3758 Q1573.55 66.1351 1573.55 57.6282 L1573.55 32.9987 L1568.08 32.9987 L1568.08 27.2059 L1573.55 27.2059 L1573.55 14.324 L1581.05 14.324 Z" fill="#000000" fill-rule="nonzero" fill-opacity="1"></path><path clip-path="url(#clip330)" d="M1606.2 27.2059 L1613.66 27.2059 L1613.66 72.576 L1606.2 72.576 L1606.2 27.2059 M1606.2 9.54393 L1613.66 9.54393 L1613.66 18.9825 L1606.2 18.9825 L1606.2 9.54393 Z" fill="#000000" fill-rule="nonzero" fill-opacity="1"></path><path clip-path="url(#clip330)" d="M1646.83 32.4315 Q1640.84 32.4315 1637.35 37.1306 Q1633.87 41.7891 1633.87 49.9314 Q1633.87 58.0738 1637.31 62.7728 Q1640.8 67.4314 1646.83 67.4314 Q1652.79 67.4314 1656.27 62.7323 Q1659.76 58.0333 1659.76 49.9314 Q1659.76 41.8701 1656.27 37.1711 Q1652.79 32.4315 1646.83 32.4315 M1646.83 26.1121 Q1656.56 26.1121 1662.1 32.4315 Q1667.65 38.7509 1667.65 49.9314 Q1667.65 61.0714 1662.1 67.4314 Q1656.56 73.7508 1646.83 73.7508 Q1637.07 73.7508 1631.52 67.4314 Q1626.01 61.0714 1626.01 49.9314 Q1626.01 38.7509 1631.52 32.4315 Q1637.07 26.1121 1646.83 26.1121 Z" fill="#000000" fill-rule="nonzero" fill-opacity="1"></path><path clip-path="url(#clip330)" d="M1717.72 45.1919 L1717.72 72.576 L1710.27 72.576 L1710.27 45.4349 Q1710.27 38.994 1707.76 35.7938 Q1705.25 32.5936 1700.22 32.5936 Q1694.19 32.5936 1690.7 36.4419 Q1687.22 40.2903 1687.22 46.9338 L1687.22 72.576 L1679.73 72.576 L1679.73 27.2059 L1687.22 27.2059 L1687.22 34.2544 Q1689.89 30.163 1693.5 28.1376 Q1697.15 26.1121 1701.88 26.1121 Q1709.7 26.1121 1713.71 30.9732 Q1717.72 35.7938 1717.72 45.1919 Z" fill="#000000" fill-rule="nonzero" fill-opacity="1"></path><circle clip-path="url(#clip332)" cx="309.067" cy="1386.4" r="18" fill="#000003" fill-rule="evenodd" fill-opacity="1" stroke="#000000" stroke-opacity="1" stroke-width="1.6"></circle>
<circle clip-path="url(#clip332)" cx="705.9" cy="1386.4" r="18" fill="#000003" fill-rule="evenodd" fill-opacity="1" stroke="#000000" stroke-opacity="1" stroke-width="1.6"></circle>
<circle clip-path="url(#clip332)" cx="705.9" cy="977.683" r="18" fill="#000003" fill-rule="evenodd" fill-opacity="1" stroke="#000000" stroke-opacity="1" stroke-width="1.6"></circle>
<circle clip-path="url(#clip332)" cx="1102.73" cy="977.683" r="18" fill="#000003" fill-rule="evenodd" fill-opacity="1" stroke="#000000" stroke-opacity="1" stroke-width="1.6"></circle>
<circle clip-path="url(#clip332)" cx="1896.4" cy="977.683" r="18" fill="#fcfea4" fill-rule="evenodd" fill-opacity="1" stroke="#000000" stroke-opacity="1" stroke-width="1.6"></circle>
<circle clip-path="url(#clip332)" cx="705.9" cy="568.969" r="18" fill="#000003" fill-rule="evenodd" fill-opacity="1" stroke="#000000" stroke-opacity="1" stroke-width="1.6"></circle>
<circle clip-path="url(#clip332)" cx="1896.4" cy="568.969" r="18" fill="#fcfea4" fill-rule="evenodd" fill-opacity="1" stroke="#000000" stroke-opacity="1" stroke-width="1.6"></circle>
<circle clip-path="url(#clip332)" cx="1499.57" cy="160.256" r="18" fill="#fcfea4" fill-rule="evenodd" fill-opacity="1" stroke="#000000" stroke-opacity="1" stroke-width="1.6"></circle>
<circle clip-path="url(#clip332)" cx="2293.23" cy="1386.4" r="18" fill="#fcfea4" fill-rule="evenodd" fill-opacity="1" stroke="#000000" stroke-opacity="1" stroke-width="1.6"></circle>
<circle clip-path="url(#clip332)" cx="309.067" cy="568.969" r="18" fill="#000003" fill-rule="evenodd" fill-opacity="1" stroke="#000000" stroke-opacity="1" stroke-width="1.6"></circle>
<circle clip-path="url(#clip332)" cx="1102.73" cy="568.969" r="18" fill="#000003" fill-rule="evenodd" fill-opacity="1" stroke="#000000" stroke-opacity="1" stroke-width="1.6"></circle>
<circle clip-path="url(#clip332)" cx="705.9" cy="160.256" r="18" fill="#000003" fill-rule="evenodd" fill-opacity="1" stroke="#000000" stroke-opacity="1" stroke-width="1.6"></circle>
<circle clip-path="url(#clip332)" cx="1102.73" cy="160.256" r="18" fill="#fcfea4" fill-rule="evenodd" fill-opacity="1" stroke="#000000" stroke-opacity="1" stroke-width="1.6"></circle>
<circle clip-path="url(#clip332)" cx="1896.4" cy="1386.4" r="18" fill="#fcfea4" fill-rule="evenodd" fill-opacity="1" stroke="#000000" stroke-opacity="1" stroke-width="1.6"></circle>
<circle clip-path="url(#clip332)" cx="1896.4" cy="160.256" r="18" fill="#fcfea4" fill-rule="evenodd" fill-opacity="1" stroke="#000000" stroke-opacity="1" stroke-width="1.6"></circle>
</svg>