<svg xmlns="http://www.w3.org/2000/svg" xmlns:xlink="http://www.w3.org/1999/xlink" width="600" height="400" viewBox="0 0 2400 1600">
<defs>
  <clipPath id="clip290">
    <rect x="0" y="0" width="2400" height="1600"></rect>
  </clipPath>
</defs>
<path clip-path="url(#clip290)" d="M0 1600 L2400 1600 L2400 8.88178e-14 L0 8.88178e-14  Z" fill="#ffffff" fill-rule="evenodd" fill-opacity="1"></path>
<defs>
  <clipPath id="clip291">
    <rect x="480" y="0" width="1681" height="1600"></rect>
  </clipPath>
</defs>
<path clip-path="url(#clip290)" d="M279.218 1423.18 L2352.76 1423.18 L2352.76 123.472 L279.218 123.472  Z" fill="#ffffff" fill-rule="evenodd" fill-opacity="1"></path>
<defs>
  <clipPath id="clip292">
    <rect x="279" y="123" width="2075" height="1301"></rect>
  </clipPath>
</defs>
<polyline clip-path="url(#clip292)" style="stroke:#000000; stroke-linecap:round; stroke-linejoin:round; stroke-width:2; stroke-opacity:0.1; fill:none" points="331.511,1423.18 331.511,123.472 "></polyline>
<polyline clip-path="url(#clip292)" style="stroke:#000000; stroke-linecap:round; stroke-linejoin:round; stroke-width:2; stroke-opacity:0.1; fill:none" points="741.09,1423.18 741.09,123.472 "></polyline>
<polyline clip-path="url(#clip292)" style="stroke:#000000; stroke-linecap:round; stroke-linejoin:round; stroke-width:2; stroke-opacity:0.1; fill:none" points="1150.67,1423.18 1150.67,123.472 "></polyline>
<polyline clip-path="url(#clip292)" style="stroke:#000000; stroke-linecap:round; stroke-linejoin:round; stroke-width:2; stroke-opacity:0.1; fill:none" points="1560.25,1423.18 1560.25,123.472 "></polyline>
<polyline clip-path="url(#clip292)" style="stroke:#000000; stroke-linecap:round; stroke-linejoin:round; stroke-width:2; stroke-opacity:0.1; fill:none" points="1969.83,1423.18 1969.83,123.472 "></polyline>
<polyline clip-path="url(#clip292)" style="stroke:#000000; stroke-linecap:round; stroke-linejoin:round; stroke-width:2; stroke-opacity:0.1; fill:none" points="279.218,1405.49 2352.76,1405.49 "></polyline>
<polyline clip-path="url(#clip292)" style="stroke:#000000; stroke-linecap:round; stroke-linejoin:round; stroke-width:2; stroke-opacity:0.1; fill:none" points="279.218,1085.26 2352.76,1085.26 "></polyline>
<polyline clip-path="url(#clip292)" style="stroke:#000000; stroke-linecap:round; stroke-linejoin:round; stroke-width:2; stroke-opacity:0.1; fill:none" points="279.218,765.029 2352.76,765.029 "></polyline>
<polyline clip-path="url(#clip292)" style="stroke:#000000; stroke-linecap:round; stroke-linejoin:round; stroke-width:2; stroke-opacity:0.1; fill:none" points="279.218,444.797 2352.76,444.797 "></polyline>
<polyline clip-path="url(#clip292)" style="stroke:#000000; stroke-linecap:round; stroke-linejoin:round; stroke-width:2; stroke-opacity:0.1; fill:none" points="279.218,124.565 2352.76,124.565 "></polyline>
<polyline clip-path="url(#clip290)" style="stroke:#000000; stroke-linecap:round; stroke-linejoin:round; stroke-width:4; stroke-opacity:1; fill:none" points="279.218,1423.18 2352.76,1423.18 "></polyline>
<polyline clip-path="url(#clip290)" style="stroke:#000000; stroke-linecap:round; stroke-linejoin:round; stroke-width:4; stroke-opacity:1; fill:none" points="331.511,1423.18 331.511,1404.28 "></polyline>
<polyline clip-path="url(#clip290)" style="stroke:#000000; stroke-linecap:round; stroke-linejoin:round; stroke-width:4; stroke-opacity:1; fill:none" points="741.09,1423.18 741.09,1404.28 "></polyline>
<polyline clip-path="url(#clip290)" style="stroke:#000000; stroke-linecap:round; stroke-linejoin:round; stroke-width:4; stroke-opacity:1; fill:none" points="1150.67,1423.18 1150.67,1404.28 "></polyline>
<polyline clip-path="url(#clip290)" style="stroke:#000000; stroke-linecap:round; stroke-linejoin:round; stroke-width:4; stroke-opacity:1; fill:none" points="1560.25,1423.18 1560.25,1404.28 "></polyline>
<polyline clip-path="url(#clip290)" style="stroke:#000000; stroke-linecap:round; stroke-linejoin:round; stroke-width:4; stroke-opacity:1; fill:none" points="1969.83,1423.18 1969.83,1404.28 "></polyline>
<path clip-path="url(#clip290)" d="M247.877 1468.75 L277.553 1468.75 L277.553 1472.69 L247.877 1472.69 L247.877 1468.75 Z" fill="#000000" fill-rule="nonzero" fill-opacity="1"></path><path clip-path="url(#clip290)" d="M288.456 1481.64 L296.095 1481.64 L296.095 1455.28 L287.785 1456.95 L287.785 1452.69 L296.048 1451.02 L300.724 1451.02 L300.724 1481.64 L308.363 1481.64 L308.363 1485.58 L288.456 1485.58 L288.456 1481.64 Z" fill="#000000" fill-rule="nonzero" fill-opacity="1"></path><path clip-path="url(#clip290)" d="M318.618 1481.64 L326.257 1481.64 L326.257 1455.28 L317.946 1456.95 L317.946 1452.69 L326.21 1451.02 L330.886 1451.02 L330.886 1481.64 L338.525 1481.64 L338.525 1485.58 L318.618 1485.58 L318.618 1481.64 Z" fill="#000000" fill-rule="nonzero" fill-opacity="1"></path><path clip-path="url(#clip290)" d="M357.969 1469.17 Q354.636 1469.17 352.715 1470.95 Q350.817 1472.73 350.817 1475.86 Q350.817 1478.98 352.715 1480.77 Q354.636 1482.55 357.969 1482.55 Q361.303 1482.55 363.224 1480.77 Q365.145 1478.96 365.145 1475.86 Q365.145 1472.73 363.224 1470.95 Q361.326 1469.17 357.969 1469.17 M353.294 1467.18 Q350.284 1466.44 348.594 1464.38 Q346.928 1462.32 346.928 1459.35 Q346.928 1455.21 349.868 1452.8 Q352.831 1450.39 357.969 1450.39 Q363.131 1450.39 366.071 1452.8 Q369.011 1455.21 369.011 1459.35 Q369.011 1462.32 367.321 1464.38 Q365.655 1466.44 362.668 1467.18 Q366.048 1467.96 367.923 1470.26 Q369.821 1472.55 369.821 1475.86 Q369.821 1480.88 366.743 1483.57 Q363.687 1486.25 357.969 1486.25 Q352.252 1486.25 349.173 1483.57 Q346.118 1480.88 346.118 1475.86 Q346.118 1472.55 348.016 1470.26 Q349.914 1467.96 353.294 1467.18 M351.581 1459.79 Q351.581 1462.48 353.247 1463.98 Q354.937 1465.49 357.969 1465.49 Q360.979 1465.49 362.668 1463.98 Q364.381 1462.48 364.381 1459.79 Q364.381 1457.11 362.668 1455.6 Q360.979 1454.1 357.969 1454.1 Q354.937 1454.1 353.247 1455.6 Q351.581 1457.11 351.581 1459.79 Z" fill="#000000" fill-rule="nonzero" fill-opacity="1"></path><path clip-path="url(#clip290)" d="M378.131 1479.7 L383.016 1479.7 L383.016 1485.58 L378.131 1485.58 L378.131 1479.7 Z" fill="#000000" fill-rule="nonzero" fill-opacity="1"></path><path clip-path="url(#clip290)" d="M403.201 1454.1 Q399.59 1454.1 397.761 1457.66 Q395.955 1461.2 395.955 1468.33 Q395.955 1475.44 397.761 1479.01 Q399.59 1482.55 403.201 1482.55 Q406.835 1482.55 408.64 1479.01 Q410.469 1475.44 410.469 1468.33 Q410.469 1461.2 408.64 1457.66 Q406.835 1454.1 403.201 1454.1 M403.201 1450.39 Q409.011 1450.39 412.066 1455 Q415.145 1459.58 415.145 1468.33 Q415.145 1477.06 412.066 1481.67 Q409.011 1486.25 403.201 1486.25 Q397.39 1486.25 394.312 1481.67 Q391.256 1477.06 391.256 1468.33 Q391.256 1459.58 394.312 1455 Q397.39 1450.39 403.201 1450.39 Z" fill="#000000" fill-rule="nonzero" fill-opacity="1"></path><path clip-path="url(#clip290)" d="M657.503 1468.75 L687.179 1468.75 L687.179 1472.69 L657.503 1472.69 L657.503 1468.75 Z" fill="#000000" fill-rule="nonzero" fill-opacity="1"></path><path clip-path="url(#clip290)" d="M698.081 1481.64 L705.72 1481.64 L705.72 1455.28 L697.41 1456.95 L697.41 1452.69 L705.674 1451.02 L710.35 1451.02 L710.35 1481.64 L717.989 1481.64 L717.989 1485.58 L698.081 1485.58 L698.081 1481.64 Z" fill="#000000" fill-rule="nonzero" fill-opacity="1"></path><path clip-path="url(#clip290)" d="M728.243 1481.64 L735.882 1481.64 L735.882 1455.28 L727.572 1456.95 L727.572 1452.69 L735.836 1451.02 L740.512 1451.02 L740.512 1481.64 L748.151 1481.64 L748.151 1485.58 L728.243 1485.58 L728.243 1481.64 Z" fill="#000000" fill-rule="nonzero" fill-opacity="1"></path><path clip-path="url(#clip290)" d="M756.414 1451.02 L778.637 1451.02 L778.637 1453.01 L766.09 1485.58 L761.206 1485.58 L773.012 1454.96 L756.414 1454.96 L756.414 1451.02 Z" fill="#000000" fill-rule="nonzero" fill-opacity="1"></path><path clip-path="url(#clip290)" d="M787.757 1479.7 L792.641 1479.7 L792.641 1485.58 L787.757 1485.58 L787.757 1479.7 Z" fill="#000000" fill-rule="nonzero" fill-opacity="1"></path><path clip-path="url(#clip290)" d="M812.826 1469.17 Q809.493 1469.17 807.572 1470.95 Q805.673 1472.73 805.673 1475.86 Q805.673 1478.98 807.572 1480.77 Q809.493 1482.55 812.826 1482.55 Q816.159 1482.55 818.081 1480.77 Q820.002 1478.96 820.002 1475.86 Q820.002 1472.73 818.081 1470.95 Q816.183 1469.17 812.826 1469.17 M808.15 1467.18 Q805.141 1466.44 803.451 1464.38 Q801.785 1462.32 801.785 1459.35 Q801.785 1455.21 804.724 1452.8 Q807.687 1450.39 812.826 1450.39 Q817.988 1450.39 820.928 1452.8 Q823.868 1455.21 823.868 1459.35 Q823.868 1462.32 822.178 1464.38 Q820.511 1466.44 817.525 1467.18 Q820.905 1467.96 822.78 1470.26 Q824.678 1472.55 824.678 1475.86 Q824.678 1480.88 821.599 1483.57 Q818.544 1486.25 812.826 1486.25 Q807.109 1486.25 804.03 1483.57 Q800.974 1480.88 800.974 1475.86 Q800.974 1472.55 802.873 1470.26 Q804.771 1467.96 808.15 1467.18 M806.437 1459.79 Q806.437 1462.48 808.104 1463.98 Q809.794 1465.49 812.826 1465.49 Q815.835 1465.49 817.525 1463.98 Q819.238 1462.48 819.238 1459.79 Q819.238 1457.11 817.525 1455.6 Q815.835 1454.1 812.826 1454.1 Q809.794 1454.1 808.104 1455.6 Q806.437 1457.11 806.437 1459.79 Z" fill="#000000" fill-rule="nonzero" fill-opacity="1"></path><path clip-path="url(#clip290)" d="M1066.95 1468.75 L1096.63 1468.75 L1096.63 1472.69 L1066.95 1472.69 L1066.95 1468.75 Z" fill="#000000" fill-rule="nonzero" fill-opacity="1"></path><path clip-path="url(#clip290)" d="M1107.53 1481.64 L1115.17 1481.64 L1115.17 1455.28 L1106.86 1456.95 L1106.86 1452.69 L1115.13 1451.02 L1119.8 1451.02 L1119.8 1481.64 L1127.44 1481.64 L1127.44 1485.58 L1107.53 1485.58 L1107.53 1481.64 Z" fill="#000000" fill-rule="nonzero" fill-opacity="1"></path><path clip-path="url(#clip290)" d="M1137.7 1481.64 L1145.33 1481.64 L1145.33 1455.28 L1137.02 1456.95 L1137.02 1452.69 L1145.29 1451.02 L1149.96 1451.02 L1149.96 1481.64 L1157.6 1481.64 L1157.6 1485.58 L1137.7 1485.58 L1137.7 1481.64 Z" fill="#000000" fill-rule="nonzero" fill-opacity="1"></path><path clip-path="url(#clip290)" d="M1165.87 1451.02 L1188.09 1451.02 L1188.09 1453.01 L1175.54 1485.58 L1170.66 1485.58 L1182.46 1454.96 L1165.87 1454.96 L1165.87 1451.02 Z" fill="#000000" fill-rule="nonzero" fill-opacity="1"></path><path clip-path="url(#clip290)" d="M1197.21 1479.7 L1202.09 1479.7 L1202.09 1485.58 L1197.21 1485.58 L1197.21 1479.7 Z" fill="#000000" fill-rule="nonzero" fill-opacity="1"></path><path clip-path="url(#clip290)" d="M1222.86 1466.44 Q1219.71 1466.44 1217.86 1468.59 Q1216.03 1470.74 1216.03 1474.49 Q1216.03 1478.22 1217.86 1480.39 Q1219.71 1482.55 1222.86 1482.55 Q1226 1482.55 1227.83 1480.39 Q1229.69 1478.22 1229.69 1474.49 Q1229.69 1470.74 1227.83 1468.59 Q1226 1466.44 1222.86 1466.44 M1232.14 1451.78 L1232.14 1456.04 Q1230.38 1455.21 1228.57 1454.77 Q1226.79 1454.33 1225.03 1454.33 Q1220.4 1454.33 1217.95 1457.45 Q1215.52 1460.58 1215.17 1466.9 Q1216.54 1464.89 1218.6 1463.82 Q1220.66 1462.73 1223.13 1462.73 Q1228.34 1462.73 1231.35 1465.9 Q1234.38 1469.05 1234.38 1474.49 Q1234.38 1479.82 1231.24 1483.03 Q1228.09 1486.25 1222.86 1486.25 Q1216.86 1486.25 1213.69 1481.67 Q1210.52 1477.06 1210.52 1468.33 Q1210.52 1460.14 1214.41 1455.28 Q1218.3 1450.39 1224.85 1450.39 Q1226.61 1450.39 1228.39 1450.74 Q1230.19 1451.09 1232.14 1451.78 Z" fill="#000000" fill-rule="nonzero" fill-opacity="1"></path><path clip-path="url(#clip290)" d="M1476.37 1468.75 L1506.05 1468.75 L1506.05 1472.69 L1476.37 1472.69 L1476.37 1468.75 Z" fill="#000000" fill-rule="nonzero" fill-opacity="1"></path><path clip-path="url(#clip290)" d="M1516.95 1481.64 L1524.59 1481.64 L1524.59 1455.28 L1516.28 1456.95 L1516.28 1452.69 L1524.54 1451.02 L1529.22 1451.02 L1529.22 1481.64 L1536.86 1481.64 L1536.86 1485.58 L1516.95 1485.58 L1516.95 1481.64 Z" fill="#000000" fill-rule="nonzero" fill-opacity="1"></path><path clip-path="url(#clip290)" d="M1547.11 1481.64 L1554.75 1481.64 L1554.75 1455.28 L1546.44 1456.95 L1546.44 1452.69 L1554.7 1451.02 L1559.38 1451.02 L1559.38 1481.64 L1567.02 1481.64 L1567.02 1485.58 L1547.11 1485.58 L1547.11 1481.64 Z" fill="#000000" fill-rule="nonzero" fill-opacity="1"></path><path clip-path="url(#clip290)" d="M1575.28 1451.02 L1597.51 1451.02 L1597.51 1453.01 L1584.96 1485.58 L1580.08 1485.58 L1591.88 1454.96 L1575.28 1454.96 L1575.28 1451.02 Z" fill="#000000" fill-rule="nonzero" fill-opacity="1"></path><path clip-path="url(#clip290)" d="M1606.63 1479.7 L1611.51 1479.7 L1611.51 1485.58 L1606.63 1485.58 L1606.63 1479.7 Z" fill="#000000" fill-rule="nonzero" fill-opacity="1"></path><path clip-path="url(#clip290)" d="M1634.54 1455.09 L1622.74 1473.54 L1634.54 1473.54 L1634.54 1455.09 M1633.32 1451.02 L1639.2 1451.02 L1639.2 1473.54 L1644.13 1473.54 L1644.13 1477.43 L1639.2 1477.43 L1639.2 1485.58 L1634.54 1485.58 L1634.54 1477.43 L1618.94 1477.43 L1618.94 1472.92 L1633.32 1451.02 Z" fill="#000000" fill-rule="nonzero" fill-opacity="1"></path><path clip-path="url(#clip290)" d="M1886.99 1468.75 L1916.67 1468.75 L1916.67 1472.69 L1886.99 1472.69 L1886.99 1468.75 Z" fill="#000000" fill-rule="nonzero" fill-opacity="1"></path><path clip-path="url(#clip290)" d="M1927.57 1481.64 L1935.21 1481.64 L1935.21 1455.28 L1926.9 1456.95 L1926.9 1452.69 L1935.16 1451.02 L1939.84 1451.02 L1939.84 1481.64 L1947.48 1481.64 L1947.48 1485.58 L1927.57 1485.58 L1927.57 1481.64 Z" fill="#000000" fill-rule="nonzero" fill-opacity="1"></path><path clip-path="url(#clip290)" d="M1957.73 1481.64 L1965.37 1481.64 L1965.37 1455.28 L1957.06 1456.95 L1957.06 1452.69 L1965.33 1451.02 L1970 1451.02 L1970 1481.64 L1977.64 1481.64 L1977.64 1485.58 L1957.73 1485.58 L1957.73 1481.64 Z" fill="#000000" fill-rule="nonzero" fill-opacity="1"></path><path clip-path="url(#clip290)" d="M1985.9 1451.02 L2008.13 1451.02 L2008.13 1453.01 L1995.58 1485.58 L1990.7 1485.58 L2002.5 1454.96 L1985.9 1454.96 L1985.9 1451.02 Z" fill="#000000" fill-rule="nonzero" fill-opacity="1"></path><path clip-path="url(#clip290)" d="M2017.25 1479.7 L2022.13 1479.7 L2022.13 1485.58 L2017.25 1485.58 L2017.25 1479.7 Z" fill="#000000" fill-rule="nonzero" fill-opacity="1"></path><path clip-path="url(#clip290)" d="M2036.34 1481.64 L2052.66 1481.64 L2052.66 1485.58 L2030.72 1485.58 L2030.72 1481.64 Q2033.38 1478.89 2037.96 1474.26 Q2042.57 1469.61 2043.75 1468.27 Q2046 1465.74 2046.88 1464.01 Q2047.78 1462.25 2047.78 1460.56 Q2047.78 1457.8 2045.83 1456.07 Q2043.91 1454.33 2040.81 1454.33 Q2038.61 1454.33 2036.16 1455.09 Q2033.73 1455.86 2030.95 1457.41 L2030.95 1452.69 Q2033.77 1451.55 2036.23 1450.97 Q2038.68 1450.39 2040.72 1450.39 Q2046.09 1450.39 2049.28 1453.08 Q2052.48 1455.77 2052.48 1460.26 Q2052.48 1462.39 2051.67 1464.31 Q2050.88 1466.2 2048.77 1468.8 Q2048.2 1469.47 2045.09 1472.69 Q2041.99 1475.88 2036.34 1481.64 Z" fill="#000000" fill-rule="nonzero" fill-opacity="1"></path><path clip-path="url(#clip290)" d="M1158.82 1520.52 L1165.25 1520.52 L1165.25 1562.63 L1188.39 1562.63 L1188.39 1568.04 L1158.82 1568.04 L1158.82 1520.52 Z" fill="#000000" fill-rule="nonzero" fill-opacity="1"></path><path clip-path="url(#clip290)" d="M1207.55 1536.5 Q1202.84 1536.5 1200.1 1540.19 Q1197.36 1543.85 1197.36 1550.25 Q1197.36 1556.65 1200.07 1560.34 Q1202.8 1564 1207.55 1564 Q1212.23 1564 1214.96 1560.31 Q1217.7 1556.62 1217.7 1550.25 Q1217.7 1543.92 1214.96 1540.23 Q1212.23 1536.5 1207.55 1536.5 M1207.55 1531.54 Q1215.19 1531.54 1219.55 1536.5 Q1223.91 1541.47 1223.91 1550.25 Q1223.91 1559 1219.55 1564 Q1215.19 1568.97 1207.55 1568.97 Q1199.88 1568.97 1195.52 1564 Q1191.19 1559 1191.19 1550.25 Q1191.19 1541.47 1195.52 1536.5 Q1199.88 1531.54 1207.55 1531.54 Z" fill="#000000" fill-rule="nonzero" fill-opacity="1"></path><path clip-path="url(#clip290)" d="M1263.25 1546.53 L1263.25 1568.04 L1257.39 1568.04 L1257.39 1546.72 Q1257.39 1541.66 1255.42 1539.14 Q1253.44 1536.63 1249.5 1536.63 Q1244.75 1536.63 1242.02 1539.65 Q1239.28 1542.68 1239.28 1547.9 L1239.28 1568.04 L1233.39 1568.04 L1233.39 1532.4 L1239.28 1532.4 L1239.28 1537.93 Q1241.38 1534.72 1244.21 1533.13 Q1247.08 1531.54 1250.8 1531.54 Q1256.94 1531.54 1260.1 1535.36 Q1263.25 1539.14 1263.25 1546.53 Z" fill="#000000" fill-rule="nonzero" fill-opacity="1"></path><path clip-path="url(#clip290)" d="M1298.39 1549.81 Q1298.39 1543.44 1295.74 1539.94 Q1293.13 1536.44 1288.39 1536.44 Q1283.68 1536.44 1281.04 1539.94 Q1278.43 1543.44 1278.43 1549.81 Q1278.43 1556.14 1281.04 1559.64 Q1283.68 1563.14 1288.39 1563.14 Q1293.13 1563.14 1295.74 1559.64 Q1298.39 1556.14 1298.39 1549.81 M1304.24 1563.62 Q1304.24 1572.72 1300.2 1577.15 Q1296.16 1581.6 1287.82 1581.6 Q1284.73 1581.6 1281.99 1581.13 Q1279.26 1580.68 1276.68 1579.72 L1276.68 1574.03 Q1279.26 1575.43 1281.77 1576.1 Q1284.29 1576.76 1286.9 1576.76 Q1292.66 1576.76 1295.52 1573.74 Q1298.39 1570.75 1298.39 1564.67 L1298.39 1561.77 Q1296.57 1564.92 1293.74 1566.48 Q1290.91 1568.04 1286.96 1568.04 Q1280.4 1568.04 1276.39 1563.05 Q1272.38 1558.05 1272.38 1549.81 Q1272.38 1541.53 1276.39 1536.53 Q1280.4 1531.54 1286.96 1531.54 Q1290.91 1531.54 1293.74 1533.1 Q1296.57 1534.66 1298.39 1537.81 L1298.39 1532.4 L1304.24 1532.4 L1304.24 1563.62 Z" fill="#000000" fill-rule="nonzero" fill-opacity="1"></path><path clip-path="url(#clip290)" d="M1316.31 1532.4 L1322.16 1532.4 L1322.16 1568.04 L1316.31 1568.04 L1316.31 1532.4 M1316.31 1518.52 L1322.16 1518.52 L1322.16 1525.93 L1316.31 1525.93 L1316.31 1518.52 Z" fill="#000000" fill-rule="nonzero" fill-opacity="1"></path><path clip-path="url(#clip290)" d="M1340.21 1522.27 L1340.21 1532.4 L1352.27 1532.4 L1352.27 1536.95 L1340.21 1536.95 L1340.21 1556.3 Q1340.21 1560.66 1341.39 1561.9 Q1342.6 1563.14 1346.26 1563.14 L1352.27 1563.14 L1352.27 1568.04 L1346.26 1568.04 Q1339.48 1568.04 1336.9 1565.53 Q1334.32 1562.98 1334.32 1556.3 L1334.32 1536.95 L1330.02 1536.95 L1330.02 1532.4 L1334.32 1532.4 L1334.32 1522.27 L1340.21 1522.27 Z" fill="#000000" fill-rule="nonzero" fill-opacity="1"></path><path clip-path="url(#clip290)" d="M1359.37 1553.98 L1359.37 1532.4 L1365.23 1532.4 L1365.23 1553.75 Q1365.23 1558.81 1367.2 1561.36 Q1369.17 1563.87 1373.12 1563.87 Q1377.86 1563.87 1380.6 1560.85 Q1383.37 1557.83 1383.37 1552.61 L1383.37 1532.4 L1389.22 1532.4 L1389.22 1568.04 L1383.37 1568.04 L1383.37 1562.57 Q1381.24 1565.82 1378.4 1567.41 Q1375.6 1568.97 1371.88 1568.97 Q1365.73 1568.97 1362.55 1565.15 Q1359.37 1561.33 1359.37 1553.98 M1374.11 1531.54 L1374.11 1531.54 Z" fill="#000000" fill-rule="nonzero" fill-opacity="1"></path><path clip-path="url(#clip290)" d="M1424.74 1537.81 L1424.74 1518.52 L1430.6 1518.52 L1430.6 1568.04 L1424.74 1568.04 L1424.74 1562.7 Q1422.9 1565.88 1420.07 1567.44 Q1417.27 1568.97 1413.32 1568.97 Q1406.86 1568.97 1402.78 1563.81 Q1398.74 1558.65 1398.74 1550.25 Q1398.74 1541.85 1402.78 1536.69 Q1406.86 1531.54 1413.32 1531.54 Q1417.27 1531.54 1420.07 1533.1 Q1422.9 1534.62 1424.74 1537.81 M1404.79 1550.25 Q1404.79 1556.71 1407.43 1560.4 Q1410.1 1564.07 1414.75 1564.07 Q1419.4 1564.07 1422.07 1560.4 Q1424.74 1556.71 1424.74 1550.25 Q1424.74 1543.79 1422.07 1540.13 Q1419.4 1536.44 1414.75 1536.44 Q1410.1 1536.44 1407.43 1540.13 Q1404.79 1543.79 1404.79 1550.25 Z" fill="#000000" fill-rule="nonzero" fill-opacity="1"></path><path clip-path="url(#clip290)" d="M1473.16 1548.76 L1473.16 1551.62 L1446.23 1551.62 Q1446.61 1557.67 1449.86 1560.85 Q1453.14 1564 1458.96 1564 Q1462.33 1564 1465.49 1563.17 Q1468.67 1562.35 1471.79 1560.69 L1471.79 1566.23 Q1468.64 1567.57 1465.33 1568.27 Q1462.02 1568.97 1458.61 1568.97 Q1450.08 1568.97 1445.08 1564 Q1440.12 1559.04 1440.12 1550.57 Q1440.12 1541.82 1444.83 1536.69 Q1449.57 1531.54 1457.59 1531.54 Q1464.79 1531.54 1468.95 1536.18 Q1473.16 1540.8 1473.16 1548.76 M1467.3 1547.04 Q1467.24 1542.23 1464.59 1539.37 Q1461.98 1536.5 1457.66 1536.5 Q1452.75 1536.5 1449.79 1539.27 Q1446.87 1542.04 1446.42 1547.07 L1467.3 1547.04 Z" fill="#000000" fill-rule="nonzero" fill-opacity="1"></path><polyline clip-path="url(#clip290)" style="stroke:#000000; stroke-linecap:round; stroke-linejoin:round; stroke-width:4; stroke-opacity:1; fill:none" points="279.218,1423.18 279.218,123.472 "></polyline>
<polyline clip-path="url(#clip290)" style="stroke:#000000; stroke-linecap:round; stroke-linejoin:round; stroke-width:4; stroke-opacity:1; fill:none" points="279.218,1405.49 298.115,1405.49 "></polyline>
<polyline clip-path="url(#clip290)" style="stroke:#000000; stroke-linecap:round; stroke-linejoin:round; stroke-width:4; stroke-opacity:1; fill:none" points="279.218,1085.26 298.115,1085.26 "></polyline>
<polyline clip-path="url(#clip290)" style="stroke:#000000; stroke-linecap:round; stroke-linejoin:round; stroke-width:4; stroke-opacity:1; fill:none" points="279.218,765.029 298.115,765.029 "></polyline>
<polyline clip-path="url(#clip290)" style="stroke:#000000; stroke-linecap:round; stroke-linejoin:round; stroke-width:4; stroke-opacity:1; fill:none" points="279.218,444.797 298.115,444.797 "></polyline>
<polyline clip-path="url(#clip290)" style="stroke:#000000; stroke-linecap:round; stroke-linejoin:round; stroke-width:4; stroke-opacity:1; fill:none" points="279.218,124.565 298.115,124.565 "></polyline>
<path clip-path="url(#clip290)" d="M129.885 1404.14 Q133.242 1404.86 135.117 1407.12 Q137.015 1409.39 137.015 1412.73 Q137.015 1417.84 133.496 1420.64 Q129.978 1423.44 123.496 1423.44 Q121.32 1423.44 119.006 1423 Q116.714 1422.59 114.26 1421.73 L114.26 1417.22 Q116.205 1418.35 118.519 1418.93 Q120.834 1419.51 123.357 1419.51 Q127.755 1419.51 130.047 1417.77 Q132.362 1416.04 132.362 1412.73 Q132.362 1409.67 130.209 1407.96 Q128.08 1406.22 124.26 1406.22 L120.232 1406.22 L120.232 1402.38 L124.445 1402.38 Q127.894 1402.38 129.723 1401.01 Q131.552 1399.62 131.552 1397.03 Q131.552 1394.37 129.654 1392.96 Q127.779 1391.52 124.26 1391.52 Q122.339 1391.52 120.14 1391.94 Q117.941 1392.36 115.302 1393.24 L115.302 1389.07 Q117.964 1388.33 120.279 1387.96 Q122.617 1387.59 124.677 1387.59 Q130.001 1387.59 133.103 1390.02 Q136.204 1392.43 136.204 1396.55 Q136.204 1399.42 134.561 1401.41 Q132.917 1403.37 129.885 1404.14 Z" fill="#000000" fill-rule="nonzero" fill-opacity="1"></path><path clip-path="url(#clip290)" d="M158.728 1392.29 L146.922 1410.74 L158.728 1410.74 L158.728 1392.29 M157.501 1388.21 L163.38 1388.21 L163.38 1410.74 L168.311 1410.74 L168.311 1414.62 L163.38 1414.62 L163.38 1422.77 L158.728 1422.77 L158.728 1414.62 L143.126 1414.62 L143.126 1410.11 L157.501 1388.21 Z" fill="#000000" fill-rule="nonzero" fill-opacity="1"></path><path clip-path="url(#clip290)" d="M176.042 1416.89 L180.926 1416.89 L180.926 1422.77 L176.042 1422.77 L176.042 1416.89 Z" fill="#000000" fill-rule="nonzero" fill-opacity="1"></path><path clip-path="url(#clip290)" d="M201.112 1391.29 Q197.5 1391.29 195.672 1394.86 Q193.866 1398.4 193.866 1405.53 Q193.866 1412.63 195.672 1416.2 Q197.5 1419.74 201.112 1419.74 Q204.746 1419.74 206.551 1416.2 Q208.38 1412.63 208.38 1405.53 Q208.38 1398.4 206.551 1394.86 Q204.746 1391.29 201.112 1391.29 M201.112 1387.59 Q206.922 1387.59 209.977 1392.19 Q213.056 1396.78 213.056 1405.53 Q213.056 1414.25 209.977 1418.86 Q206.922 1423.44 201.112 1423.44 Q195.301 1423.44 192.223 1418.86 Q189.167 1414.25 189.167 1405.53 Q189.167 1396.78 192.223 1392.19 Q195.301 1387.59 201.112 1387.59 Z" fill="#000000" fill-rule="nonzero" fill-opacity="1"></path><path clip-path="url(#clip290)" d="M231.273 1391.29 Q227.662 1391.29 225.834 1394.86 Q224.028 1398.4 224.028 1405.53 Q224.028 1412.63 225.834 1416.2 Q227.662 1419.74 231.273 1419.74 Q234.908 1419.74 236.713 1416.2 Q238.542 1412.63 238.542 1405.53 Q238.542 1398.4 236.713 1394.86 Q234.908 1391.29 231.273 1391.29 M231.273 1387.59 Q237.084 1387.59 240.139 1392.19 Q243.218 1396.78 243.218 1405.53 Q243.218 1414.25 240.139 1418.86 Q237.084 1423.44 231.273 1423.44 Q225.463 1423.44 222.385 1418.86 Q219.329 1414.25 219.329 1405.53 Q219.329 1396.78 222.385 1392.19 Q225.463 1387.59 231.273 1387.59 Z" fill="#000000" fill-rule="nonzero" fill-opacity="1"></path><path clip-path="url(#clip290)" d="M130.88 1083.91 Q134.237 1084.62 136.112 1086.89 Q138.01 1089.16 138.01 1092.49 Q138.01 1097.61 134.492 1100.41 Q130.973 1103.21 124.492 1103.21 Q122.316 1103.21 120.001 1102.77 Q117.709 1102.36 115.256 1101.5 L115.256 1096.99 Q117.2 1098.12 119.515 1098.7 Q121.83 1099.28 124.353 1099.28 Q128.751 1099.28 131.042 1097.54 Q133.357 1095.8 133.357 1092.49 Q133.357 1089.44 131.205 1087.73 Q129.075 1085.99 125.255 1085.99 L121.228 1085.99 L121.228 1082.15 L125.441 1082.15 Q128.89 1082.15 130.718 1080.78 Q132.547 1079.39 132.547 1076.8 Q132.547 1074.14 130.649 1072.73 Q128.774 1071.29 125.255 1071.29 Q123.334 1071.29 121.135 1071.71 Q118.936 1072.12 116.297 1073 L116.297 1068.84 Q118.959 1068.1 121.274 1067.73 Q123.612 1067.36 125.672 1067.36 Q130.996 1067.36 134.098 1069.79 Q137.2 1072.19 137.2 1076.31 Q137.2 1079.18 135.556 1081.18 Q133.913 1083.14 130.88 1083.91 Z" fill="#000000" fill-rule="nonzero" fill-opacity="1"></path><path clip-path="url(#clip290)" d="M159.723 1072.05 L147.917 1090.5 L159.723 1090.5 L159.723 1072.05 M158.496 1067.98 L164.376 1067.98 L164.376 1090.5 L169.306 1090.5 L169.306 1094.39 L164.376 1094.39 L164.376 1102.54 L159.723 1102.54 L159.723 1094.39 L144.121 1094.39 L144.121 1089.88 L158.496 1067.98 Z" fill="#000000" fill-rule="nonzero" fill-opacity="1"></path><path clip-path="url(#clip290)" d="M177.038 1096.66 L181.922 1096.66 L181.922 1102.54 L177.038 1102.54 L177.038 1096.66 Z" fill="#000000" fill-rule="nonzero" fill-opacity="1"></path><path clip-path="url(#clip290)" d="M196.135 1098.61 L212.454 1098.61 L212.454 1102.54 L190.51 1102.54 L190.51 1098.61 Q193.172 1095.85 197.755 1091.22 Q202.362 1086.57 203.542 1085.23 Q205.787 1082.7 206.667 1080.97 Q207.57 1079.21 207.57 1077.52 Q207.57 1074.76 205.625 1073.03 Q203.704 1071.29 200.602 1071.29 Q198.403 1071.29 195.95 1072.05 Q193.519 1072.82 190.741 1074.37 L190.741 1069.65 Q193.565 1068.51 196.019 1067.93 Q198.473 1067.36 200.51 1067.36 Q205.88 1067.36 209.074 1070.04 Q212.269 1072.73 212.269 1077.22 Q212.269 1079.35 211.459 1081.27 Q210.672 1083.17 208.565 1085.76 Q207.987 1086.43 204.885 1089.65 Q201.783 1092.84 196.135 1098.61 Z" fill="#000000" fill-rule="nonzero" fill-opacity="1"></path><path clip-path="url(#clip290)" d="M222.315 1067.98 L240.672 1067.98 L240.672 1071.92 L226.598 1071.92 L226.598 1080.39 Q227.616 1080.04 228.635 1079.88 Q229.653 1079.69 230.672 1079.69 Q236.459 1079.69 239.838 1082.86 Q243.218 1086.04 243.218 1091.45 Q243.218 1097.03 239.746 1100.13 Q236.273 1103.21 229.954 1103.21 Q227.778 1103.21 225.51 1102.84 Q223.264 1102.47 220.857 1101.73 L220.857 1097.03 Q222.94 1098.17 225.162 1098.72 Q227.385 1099.28 229.861 1099.28 Q233.866 1099.28 236.204 1097.17 Q238.542 1095.06 238.542 1091.45 Q238.542 1087.84 236.204 1085.74 Q233.866 1083.63 229.861 1083.63 Q227.986 1083.63 226.111 1084.05 Q224.26 1084.46 222.315 1085.34 L222.315 1067.98 Z" fill="#000000" fill-rule="nonzero" fill-opacity="1"></path><path clip-path="url(#clip290)" d="M129.885 763.675 Q133.242 764.392 135.117 766.661 Q137.015 768.929 137.015 772.262 Q137.015 777.378 133.496 780.179 Q129.978 782.98 123.496 782.98 Q121.32 782.98 119.006 782.54 Q116.714 782.124 114.26 781.267 L114.26 776.753 Q116.205 777.887 118.519 778.466 Q120.834 779.045 123.357 779.045 Q127.755 779.045 130.047 777.309 Q132.362 775.573 132.362 772.262 Q132.362 769.207 130.209 767.494 Q128.08 765.758 124.26 765.758 L120.232 765.758 L120.232 761.915 L124.445 761.915 Q127.894 761.915 129.723 760.55 Q131.552 759.161 131.552 756.568 Q131.552 753.906 129.654 752.494 Q127.779 751.059 124.26 751.059 Q122.339 751.059 120.14 751.476 Q117.941 751.892 115.302 752.772 L115.302 748.605 Q117.964 747.864 120.279 747.494 Q122.617 747.124 124.677 747.124 Q130.001 747.124 133.103 749.554 Q136.204 751.962 136.204 756.082 Q136.204 758.952 134.561 760.943 Q132.917 762.911 129.885 763.675 Z" fill="#000000" fill-rule="nonzero" fill-opacity="1"></path><path clip-path="url(#clip290)" d="M158.728 751.823 L146.922 770.272 L158.728 770.272 L158.728 751.823 M157.501 747.749 L163.38 747.749 L163.38 770.272 L168.311 770.272 L168.311 774.161 L163.38 774.161 L163.38 782.309 L158.728 782.309 L158.728 774.161 L143.126 774.161 L143.126 769.647 L157.501 747.749 Z" fill="#000000" fill-rule="nonzero" fill-opacity="1"></path><path clip-path="url(#clip290)" d="M176.042 776.429 L180.926 776.429 L180.926 782.309 L176.042 782.309 L176.042 776.429 Z" fill="#000000" fill-rule="nonzero" fill-opacity="1"></path><path clip-path="url(#clip290)" d="M191.158 747.749 L209.514 747.749 L209.514 751.684 L195.44 751.684 L195.44 760.156 Q196.459 759.809 197.477 759.647 Q198.496 759.462 199.514 759.462 Q205.301 759.462 208.681 762.633 Q212.061 765.804 212.061 771.221 Q212.061 776.799 208.588 779.901 Q205.116 782.98 198.797 782.98 Q196.621 782.98 194.352 782.61 Q192.107 782.239 189.7 781.499 L189.7 776.799 Q191.783 777.934 194.005 778.489 Q196.227 779.045 198.704 779.045 Q202.709 779.045 205.047 776.938 Q207.385 774.832 207.385 771.221 Q207.385 767.61 205.047 765.503 Q202.709 763.397 198.704 763.397 Q196.829 763.397 194.954 763.813 Q193.102 764.23 191.158 765.11 L191.158 747.749 Z" fill="#000000" fill-rule="nonzero" fill-opacity="1"></path><path clip-path="url(#clip290)" d="M231.273 750.827 Q227.662 750.827 225.834 754.392 Q224.028 757.934 224.028 765.063 Q224.028 772.17 225.834 775.735 Q227.662 779.276 231.273 779.276 Q234.908 779.276 236.713 775.735 Q238.542 772.17 238.542 765.063 Q238.542 757.934 236.713 754.392 Q234.908 750.827 231.273 750.827 M231.273 747.124 Q237.084 747.124 240.139 751.73 Q243.218 756.313 243.218 765.063 Q243.218 773.79 240.139 778.397 Q237.084 782.98 231.273 782.98 Q225.463 782.98 222.385 778.397 Q219.329 773.79 219.329 765.063 Q219.329 756.313 222.385 751.73 Q225.463 747.124 231.273 747.124 Z" fill="#000000" fill-rule="nonzero" fill-opacity="1"></path><path clip-path="url(#clip290)" d="M130.88 443.443 Q134.237 444.16 136.112 446.429 Q138.01 448.697 138.01 452.03 Q138.01 457.146 134.492 459.947 Q130.973 462.748 124.492 462.748 Q122.316 462.748 120.001 462.308 Q117.709 461.891 115.256 461.035 L115.256 456.521 Q117.2 457.655 119.515 458.234 Q121.83 458.813 124.353 458.813 Q128.751 458.813 131.042 457.077 Q133.357 455.341 133.357 452.03 Q133.357 448.975 131.205 447.262 Q129.075 445.526 125.255 445.526 L121.228 445.526 L121.228 441.683 L125.441 441.683 Q128.89 441.683 130.718 440.318 Q132.547 438.929 132.547 436.336 Q132.547 433.674 130.649 432.262 Q128.774 430.827 125.255 430.827 Q123.334 430.827 121.135 431.244 Q118.936 431.66 116.297 432.54 L116.297 428.373 Q118.959 427.632 121.274 427.262 Q123.612 426.892 125.672 426.892 Q130.996 426.892 134.098 429.322 Q137.2 431.73 137.2 435.85 Q137.2 438.72 135.556 440.711 Q133.913 442.679 130.88 443.443 Z" fill="#000000" fill-rule="nonzero" fill-opacity="1"></path><path clip-path="url(#clip290)" d="M159.723 431.591 L147.917 450.04 L159.723 450.04 L159.723 431.591 M158.496 427.517 L164.376 427.517 L164.376 450.04 L169.306 450.04 L169.306 453.929 L164.376 453.929 L164.376 462.077 L159.723 462.077 L159.723 453.929 L144.121 453.929 L144.121 449.415 L158.496 427.517 Z" fill="#000000" fill-rule="nonzero" fill-opacity="1"></path><path clip-path="url(#clip290)" d="M177.038 456.197 L181.922 456.197 L181.922 462.077 L177.038 462.077 L177.038 456.197 Z" fill="#000000" fill-rule="nonzero" fill-opacity="1"></path><path clip-path="url(#clip290)" d="M190.926 427.517 L213.149 427.517 L213.149 429.507 L200.602 462.077 L195.718 462.077 L207.524 431.452 L190.926 431.452 L190.926 427.517 Z" fill="#000000" fill-rule="nonzero" fill-opacity="1"></path><path clip-path="url(#clip290)" d="M222.315 427.517 L240.672 427.517 L240.672 431.452 L226.598 431.452 L226.598 439.924 Q227.616 439.577 228.635 439.415 Q229.653 439.23 230.672 439.23 Q236.459 439.23 239.838 442.401 Q243.218 445.572 243.218 450.989 Q243.218 456.567 239.746 459.669 Q236.273 462.748 229.954 462.748 Q227.778 462.748 225.51 462.378 Q223.264 462.007 220.857 461.266 L220.857 456.567 Q222.94 457.702 225.162 458.257 Q227.385 458.813 229.861 458.813 Q233.866 458.813 236.204 456.706 Q238.542 454.6 238.542 450.989 Q238.542 447.378 236.204 445.271 Q233.866 443.165 229.861 443.165 Q227.986 443.165 226.111 443.581 Q224.26 443.998 222.315 444.878 L222.315 427.517 Z" fill="#000000" fill-rule="nonzero" fill-opacity="1"></path><path clip-path="url(#clip290)" d="M129.885 123.21 Q133.242 123.928 135.117 126.197 Q137.015 128.465 137.015 131.798 Q137.015 136.914 133.496 139.715 Q129.978 142.516 123.496 142.516 Q121.32 142.516 119.006 142.076 Q116.714 141.659 114.26 140.803 L114.26 136.289 Q116.205 137.423 118.519 138.002 Q120.834 138.581 123.357 138.581 Q127.755 138.581 130.047 136.845 Q132.362 135.109 132.362 131.798 Q132.362 128.743 130.209 127.03 Q128.08 125.294 124.26 125.294 L120.232 125.294 L120.232 121.451 L124.445 121.451 Q127.894 121.451 129.723 120.085 Q131.552 118.697 131.552 116.104 Q131.552 113.442 129.654 112.03 Q127.779 110.595 124.26 110.595 Q122.339 110.595 120.14 111.011 Q117.941 111.428 115.302 112.308 L115.302 108.141 Q117.964 107.4 120.279 107.03 Q122.617 106.66 124.677 106.66 Q130.001 106.66 133.103 109.09 Q136.204 111.498 136.204 115.618 Q136.204 118.488 134.561 120.479 Q132.917 122.447 129.885 123.21 Z" fill="#000000" fill-rule="nonzero" fill-opacity="1"></path><path clip-path="url(#clip290)" d="M145.927 107.285 L164.283 107.285 L164.283 111.22 L150.209 111.22 L150.209 119.692 Q151.228 119.345 152.246 119.183 Q153.265 118.998 154.283 118.998 Q160.07 118.998 163.45 122.169 Q166.829 125.34 166.829 130.757 Q166.829 136.335 163.357 139.437 Q159.885 142.516 153.566 142.516 Q151.39 142.516 149.121 142.146 Q146.876 141.775 144.468 141.034 L144.468 136.335 Q146.552 137.47 148.774 138.025 Q150.996 138.581 153.473 138.581 Q157.478 138.581 159.815 136.474 Q162.153 134.368 162.153 130.757 Q162.153 127.146 159.815 125.039 Q157.478 122.933 153.473 122.933 Q151.598 122.933 149.723 123.349 Q147.871 123.766 145.927 124.646 L145.927 107.285 Z" fill="#000000" fill-rule="nonzero" fill-opacity="1"></path><path clip-path="url(#clip290)" d="M176.042 135.965 L180.926 135.965 L180.926 141.845 L176.042 141.845 L176.042 135.965 Z" fill="#000000" fill-rule="nonzero" fill-opacity="1"></path><path clip-path="url(#clip290)" d="M201.112 110.363 Q197.5 110.363 195.672 113.928 Q193.866 117.47 193.866 124.599 Q193.866 131.706 195.672 135.271 Q197.5 138.812 201.112 138.812 Q204.746 138.812 206.551 135.271 Q208.38 131.706 208.38 124.599 Q208.38 117.47 206.551 113.928 Q204.746 110.363 201.112 110.363 M201.112 106.66 Q206.922 106.66 209.977 111.266 Q213.056 115.849 213.056 124.599 Q213.056 133.326 209.977 137.933 Q206.922 142.516 201.112 142.516 Q195.301 142.516 192.223 137.933 Q189.167 133.326 189.167 124.599 Q189.167 115.849 192.223 111.266 Q195.301 106.66 201.112 106.66 Z" fill="#000000" fill-rule="nonzero" fill-opacity="1"></path><path clip-path="url(#clip290)" d="M231.273 110.363 Q227.662 110.363 225.834 113.928 Q224.028 117.47 224.028 124.599 Q224.028 131.706 225.834 135.271 Q227.662 138.812 231.273 138.812 Q234.908 138.812 236.713 135.271 Q238.542 131.706 238.542 124.599 Q238.542 117.47 236.713 113.928 Q234.908 110.363 231.273 110.363 M231.273 106.66 Q237.084 106.66 240.139 111.266 Q243.218 115.849 243.218 124.599 Q243.218 133.326 240.139 137.933 Q237.084 142.516 231.273 142.516 Q225.463 142.516 222.385 137.933 Q219.329 133.326 219.329 124.599 Q219.329 115.849 222.385 111.266 Q225.463 106.66 231.273 106.66 Z" fill="#000000" fill-rule="nonzero" fill-opacity="1"></path><path clip-path="url(#clip290)" d="M16.4842 902.534 L16.4842 896.105 L58.5933 896.105 L58.5933 872.965 L64.0042 872.965 L64.0042 902.534 L16.4842 902.534 Z" fill="#000000" fill-rule="nonzero" fill-opacity="1"></path><path clip-path="url(#clip290)" d="M46.0847 850.271 Q46.0847 857.369 47.7079 860.106 Q49.3312 862.844 53.2461 862.844 Q56.3653 862.844 58.2114 860.807 Q60.0256 858.738 60.0256 855.205 Q60.0256 850.335 56.5881 847.407 Q53.1188 844.447 47.3897 844.447 L46.0847 844.447 L46.0847 850.271 M43.6657 838.59 L64.0042 838.59 L64.0042 844.447 L58.5933 844.447 Q61.8398 846.452 63.3994 849.444 Q64.9272 852.436 64.9272 856.764 Q64.9272 862.239 61.8716 865.486 Q58.7843 868.7 53.6281 868.7 Q47.6125 868.7 44.5569 864.69 Q41.5014 860.648 41.5014 852.659 L41.5014 844.447 L40.9285 844.447 Q36.8862 844.447 34.6901 847.12 Q32.4621 849.762 32.4621 854.568 Q32.4621 857.624 33.1941 860.52 Q33.9262 863.417 35.3903 866.09 L29.9795 866.09 Q28.7381 862.876 28.1334 859.852 Q27.4968 856.828 27.4968 853.964 Q27.4968 846.229 31.5072 842.41 Q35.5176 838.59 43.6657 838.59 Z" fill="#000000" fill-rule="nonzero" fill-opacity="1"></path><path clip-path="url(#clip290)" d="M18.2347 820.735 L28.3562 820.735 L28.3562 808.672 L32.9077 808.672 L32.9077 820.735 L52.2594 820.735 Q56.6199 820.735 57.8613 819.557 Q59.1026 818.347 59.1026 814.687 L59.1026 808.672 L64.0042 808.672 L64.0042 814.687 Q64.0042 821.467 61.4897 824.045 Q58.9434 826.623 52.2594 826.623 L32.9077 826.623 L32.9077 830.92 L28.3562 830.92 L28.3562 826.623 L18.2347 826.623 L18.2347 820.735 Z" fill="#000000" fill-rule="nonzero" fill-opacity="1"></path><path clip-path="url(#clip290)" d="M28.3562 800.969 L28.3562 795.113 L64.0042 795.113 L64.0042 800.969 L28.3562 800.969 M14.479 800.969 L14.479 795.113 L21.895 795.113 L21.895 800.969 L14.479 800.969 Z" fill="#000000" fill-rule="nonzero" fill-opacity="1"></path><path clip-path="url(#clip290)" d="M18.2347 777.066 L28.3562 777.066 L28.3562 765.003 L32.9077 765.003 L32.9077 777.066 L52.2594 777.066 Q56.6199 777.066 57.8613 775.888 Q59.1026 774.679 59.1026 771.018 L59.1026 765.003 L64.0042 765.003 L64.0042 771.018 Q64.0042 777.798 61.4897 780.376 Q58.9434 782.954 52.2594 782.954 L32.9077 782.954 L32.9077 787.251 L28.3562 787.251 L28.3562 782.954 L18.2347 782.954 L18.2347 777.066 Z" fill="#000000" fill-rule="nonzero" fill-opacity="1"></path><path clip-path="url(#clip290)" d="M49.9359 757.905 L28.3562 757.905 L28.3562 752.049 L49.7131 752.049 Q54.7739 752.049 57.3202 750.075 Q59.8346 748.102 59.8346 744.155 Q59.8346 739.413 56.8109 736.675 Q53.7872 733.906 48.5673 733.906 L28.3562 733.906 L28.3562 728.05 L64.0042 728.05 L64.0042 733.906 L58.5296 733.906 Q61.7762 736.039 63.3676 738.872 Q64.9272 741.673 64.9272 745.396 Q64.9272 751.539 61.1078 754.722 Q57.2883 757.905 49.9359 757.905 M27.4968 743.168 L27.4968 743.168 Z" fill="#000000" fill-rule="nonzero" fill-opacity="1"></path><path clip-path="url(#clip290)" d="M33.7671 692.529 L14.479 692.529 L14.479 686.673 L64.0042 686.673 L64.0042 692.529 L58.657 692.529 Q61.8398 694.375 63.3994 697.208 Q64.9272 700.009 64.9272 703.956 Q64.9272 710.417 59.771 714.491 Q54.6147 718.533 46.212 718.533 Q37.8093 718.533 32.6531 714.491 Q27.4968 710.417 27.4968 703.956 Q27.4968 700.009 29.0564 697.208 Q30.5842 694.375 33.7671 692.529 M46.212 712.486 Q52.6732 712.486 56.3653 709.844 Q60.0256 707.17 60.0256 702.523 Q60.0256 697.876 56.3653 695.203 Q52.6732 692.529 46.212 692.529 Q39.7508 692.529 36.0905 695.203 Q32.3984 697.876 32.3984 702.523 Q32.3984 707.17 36.0905 709.844 Q39.7508 712.486 46.212 712.486 Z" fill="#000000" fill-rule="nonzero" fill-opacity="1"></path><path clip-path="url(#clip290)" d="M44.7161 644.118 L47.5806 644.118 L47.5806 671.045 Q53.6281 670.663 56.8109 667.417 Q59.9619 664.138 59.9619 658.314 Q59.9619 654.94 59.1344 651.789 Q58.3069 648.606 56.6518 645.487 L62.1899 645.487 Q63.5267 648.638 64.227 651.948 Q64.9272 655.258 64.9272 658.664 Q64.9272 667.194 59.9619 672.191 Q54.9967 677.156 46.5303 677.156 Q37.7774 677.156 32.6531 672.445 Q27.4968 667.703 27.4968 659.682 Q27.4968 652.489 32.1438 648.319 Q36.7589 644.118 44.7161 644.118 M42.9973 649.975 Q38.1912 650.038 35.3266 652.68 Q32.4621 655.29 32.4621 659.619 Q32.4621 664.52 35.2312 667.48 Q38.0002 670.408 43.0292 670.854 L42.9973 649.975 Z" fill="#000000" fill-rule="nonzero" fill-opacity="1"></path><path clip-path="url(#clip290)" d="M948.185 16.7545 L948.185 25.383 Q944.053 21.5346 939.354 19.6307 Q934.695 17.7268 929.429 17.7268 Q919.059 17.7268 913.55 24.0867 Q908.041 30.4061 908.041 42.3968 Q908.041 54.3469 913.55 60.7069 Q919.059 67.0263 929.429 67.0263 Q934.695 67.0263 939.354 65.1223 Q944.053 63.2184 948.185 59.3701 L948.185 67.9175 Q943.891 70.8341 939.07 72.2924 Q934.29 73.7508 928.943 73.7508 Q915.211 73.7508 907.311 65.3654 Q899.412 56.9395 899.412 42.3968 Q899.412 27.8135 907.311 19.4281 Q915.211 11.0023 928.943 11.0023 Q934.371 11.0023 939.151 12.4606 Q943.972 13.8784 948.185 16.7545 Z" fill="#000000" fill-rule="nonzero" fill-opacity="1"></path><path clip-path="url(#clip290)" d="M960.5 9.54393 L967.953 9.54393 L967.953 72.576 L960.5 72.576 L960.5 9.54393 Z" fill="#000000" fill-rule="nonzero" fill-opacity="1"></path><path clip-path="url(#clip290)" d="M982.78 54.671 L982.78 27.2059 L990.233 27.2059 L990.233 54.3874 Q990.233 60.8284 992.745 64.0691 Q995.257 67.2693 1000.28 67.2693 Q1006.32 67.2693 1009.8 63.421 Q1013.32 59.5726 1013.32 52.9291 L1013.32 27.2059 L1020.78 27.2059 L1020.78 72.576 L1013.32 72.576 L1013.32 65.6084 Q1010.61 69.7404 1007 71.7658 Q1003.44 73.7508 998.7 73.7508 Q990.882 73.7508 986.831 68.8897 Q982.78 64.0286 982.78 54.671 M1001.54 26.1121 L1001.54 26.1121 Z" fill="#000000" fill-rule="nonzero" fill-opacity="1"></path><path clip-path="url(#clip290)" d="M1065.05 28.5427 L1065.05 35.5912 Q1061.89 33.9709 1058.49 33.1607 Q1055.09 32.3505 1051.44 32.3505 Q1045.89 32.3505 1043.1 34.0519 Q1040.34 35.7533 1040.34 39.156 Q1040.34 41.7486 1042.33 43.2475 Q1044.31 44.7058 1050.31 46.0426 L1052.86 46.6097 Q1060.8 48.3111 1064.12 51.4303 Q1067.48 54.509 1067.48 60.0587 Q1067.48 66.3781 1062.46 70.0644 Q1057.48 73.7508 1048.73 73.7508 Q1045.08 73.7508 1041.11 73.0216 Q1037.18 72.3329 1032.81 70.9151 L1032.81 63.2184 Q1036.94 65.3654 1040.95 66.4591 Q1044.96 67.5124 1048.89 67.5124 Q1054.16 67.5124 1056.99 65.73 Q1059.83 63.9071 1059.83 60.6258 Q1059.83 57.5877 1057.76 55.9673 Q1055.74 54.3469 1048.81 52.8481 L1046.22 52.2405 Q1039.29 50.7821 1036.21 47.7845 Q1033.13 44.7463 1033.13 39.4801 Q1033.13 33.0797 1037.67 29.5959 Q1042.21 26.1121 1050.55 26.1121 Q1054.68 26.1121 1058.33 26.7198 Q1061.97 27.3274 1065.05 28.5427 Z" fill="#000000" fill-rule="nonzero" fill-opacity="1"></path><path clip-path="url(#clip290)" d="M1086.73 14.324 L1086.73 27.2059 L1102.08 27.2059 L1102.08 32.9987 L1086.73 32.9987 L1086.73 57.6282 Q1086.73 63.1779 1088.22 64.7578 Q1089.76 66.3376 1094.42 66.3376 L1102.08 66.3376 L1102.08 72.576 L1094.42 72.576 Q1085.79 72.576 1082.51 69.3758 Q1079.23 66.1351 1079.23 57.6282 L1079.23 32.9987 L1073.76 32.9987 L1073.76 27.2059 L1079.23 27.2059 L1079.23 14.324 L1086.73 14.324 Z" fill="#000000" fill-rule="nonzero" fill-opacity="1"></path><path clip-path="url(#clip290)" d="M1150.69 48.0275 L1150.69 51.6733 L1116.42 51.6733 Q1116.91 59.3701 1121.04 63.421 Q1125.21 67.4314 1132.62 67.4314 Q1136.92 67.4314 1140.93 66.3781 Q1144.98 65.3249 1148.95 63.2184 L1148.95 70.267 Q1144.94 71.9684 1140.72 72.8596 Q1136.51 73.7508 1132.18 73.7508 Q1121.32 73.7508 1114.96 67.4314 Q1108.64 61.1119 1108.64 50.3365 Q1108.64 39.1965 1114.64 32.6746 Q1120.67 26.1121 1130.88 26.1121 Q1140.04 26.1121 1145.34 32.0264 Q1150.69 37.9003 1150.69 48.0275 M1143.24 45.84 Q1143.16 39.7232 1139.79 36.0774 Q1136.47 32.4315 1130.96 32.4315 Q1124.72 32.4315 1120.96 35.9558 Q1117.23 39.4801 1116.66 45.8805 L1143.24 45.84 Z" fill="#000000" fill-rule="nonzero" fill-opacity="1"></path><path clip-path="url(#clip290)" d="M1189.21 34.1734 Q1187.96 33.4443 1186.46 33.1202 Q1185 32.7556 1183.22 32.7556 Q1176.9 32.7556 1173.5 36.8875 Q1170.13 40.9789 1170.13 48.6757 L1170.13 72.576 L1162.64 72.576 L1162.64 27.2059 L1170.13 27.2059 L1170.13 34.2544 Q1172.48 30.1225 1176.25 28.1376 Q1180.02 26.1121 1185.41 26.1121 Q1186.18 26.1121 1187.11 26.2337 Q1188.04 26.3147 1189.17 26.5172 L1189.21 34.1734 Z" fill="#000000" fill-rule="nonzero" fill-opacity="1"></path><path clip-path="url(#clip290)" d="M1239.32 72.576 L1216.23 12.096 L1224.78 12.096 L1243.94 63.0159 L1263.14 12.096 L1271.65 12.096 L1248.6 72.576 L1239.32 72.576 Z" fill="#000000" fill-rule="nonzero" fill-opacity="1"></path><path clip-path="url(#clip290)" d="M1278.33 27.2059 L1285.79 27.2059 L1285.79 72.576 L1278.33 72.576 L1278.33 27.2059 M1278.33 9.54393 L1285.79 9.54393 L1285.79 18.9825 L1278.33 18.9825 L1278.33 9.54393 Z" fill="#000000" fill-rule="nonzero" fill-opacity="1"></path><path clip-path="url(#clip290)" d="M1330.31 28.5427 L1330.31 35.5912 Q1327.15 33.9709 1323.74 33.1607 Q1320.34 32.3505 1316.7 32.3505 Q1311.15 32.3505 1308.35 34.0519 Q1305.6 35.7533 1305.6 39.156 Q1305.6 41.7486 1307.58 43.2475 Q1309.57 44.7058 1315.56 46.0426 L1318.11 46.6097 Q1326.05 48.3111 1329.38 51.4303 Q1332.74 54.509 1332.74 60.0587 Q1332.74 66.3781 1327.71 70.0644 Q1322.73 73.7508 1313.98 73.7508 Q1310.34 73.7508 1306.37 73.0216 Q1302.44 72.3329 1298.06 70.9151 L1298.06 63.2184 Q1302.19 65.3654 1306.2 66.4591 Q1310.21 67.5124 1314.14 67.5124 Q1319.41 67.5124 1322.25 65.73 Q1325.08 63.9071 1325.08 60.6258 Q1325.08 57.5877 1323.02 55.9673 Q1320.99 54.3469 1314.06 52.8481 L1311.47 52.2405 Q1304.54 50.7821 1301.46 47.7845 Q1298.39 44.7463 1298.39 39.4801 Q1298.39 33.0797 1302.92 29.5959 Q1307.46 26.1121 1315.8 26.1121 Q1319.94 26.1121 1323.58 26.7198 Q1327.23 27.3274 1330.31 28.5427 Z" fill="#000000" fill-rule="nonzero" fill-opacity="1"></path><path clip-path="url(#clip290)" d="M1343.84 54.671 L1343.84 27.2059 L1351.29 27.2059 L1351.29 54.3874 Q1351.29 60.8284 1353.8 64.0691 Q1356.31 67.2693 1361.34 67.2693 Q1367.37 67.2693 1370.86 63.421 Q1374.38 59.5726 1374.38 52.9291 L1374.38 27.2059 L1381.83 27.2059 L1381.83 72.576 L1374.38 72.576 L1374.38 65.6084 Q1371.67 69.7404 1368.06 71.7658 Q1364.5 73.7508 1359.76 73.7508 Q1351.94 73.7508 1347.89 68.8897 Q1343.84 64.0286 1343.84 54.671 M1362.59 26.1121 L1362.59 26.1121 Z" fill="#000000" fill-rule="nonzero" fill-opacity="1"></path><path clip-path="url(#clip290)" d="M1417.81 49.7694 Q1408.77 49.7694 1405.29 51.8354 Q1401.81 53.9013 1401.81 58.8839 Q1401.81 62.8538 1404.4 65.2034 Q1407.03 67.5124 1411.53 67.5124 Q1417.73 67.5124 1421.45 63.1374 Q1425.22 58.7219 1425.22 51.4303 L1425.22 49.7694 L1417.81 49.7694 M1432.67 46.6907 L1432.67 72.576 L1425.22 72.576 L1425.22 65.6895 Q1422.67 69.8214 1418.86 71.8063 Q1415.05 73.7508 1409.54 73.7508 Q1402.57 73.7508 1398.44 69.8619 Q1394.35 65.9325 1394.35 59.3701 Q1394.35 51.7138 1399.46 47.825 Q1404.6 43.9361 1414.77 43.9361 L1425.22 43.9361 L1425.22 43.2069 Q1425.22 38.0623 1421.82 35.2672 Q1418.45 32.4315 1412.34 32.4315 Q1408.45 32.4315 1404.76 33.3632 Q1401.08 34.295 1397.67 36.1584 L1397.67 29.2718 Q1401.76 27.692 1405.61 26.9223 Q1409.46 26.1121 1413.11 26.1121 Q1422.95 26.1121 1427.81 31.2163 Q1432.67 36.3204 1432.67 46.6907 Z" fill="#000000" fill-rule="nonzero" fill-opacity="1"></path><path clip-path="url(#clip290)" d="M1448.03 9.54393 L1455.48 9.54393 L1455.48 72.576 L1448.03 72.576 L1448.03 9.54393 Z" fill="#000000" fill-rule="nonzero" fill-opacity="1"></path><path clip-path="url(#clip290)" d="M1471.08 27.2059 L1478.53 27.2059 L1478.53 72.576 L1471.08 72.576 L1471.08 27.2059 M1471.08 9.54393 L1478.53 9.54393 L1478.53 18.9825 L1471.08 18.9825 L1471.08 9.54393 Z" fill="#000000" fill-rule="nonzero" fill-opacity="1"></path><path clip-path="url(#clip290)" d="M1490.88 27.2059 L1526.29 27.2059 L1526.29 34.0114 L1498.26 66.6212 L1526.29 66.6212 L1526.29 72.576 L1489.87 72.576 L1489.87 65.7705 L1517.9 33.1607 L1490.88 33.1607 L1490.88 27.2059 Z" fill="#000000" fill-rule="nonzero" fill-opacity="1"></path><path clip-path="url(#clip290)" d="M1558.29 49.7694 Q1549.26 49.7694 1545.77 51.8354 Q1542.29 53.9013 1542.29 58.8839 Q1542.29 62.8538 1544.88 65.2034 Q1547.52 67.5124 1552.01 67.5124 Q1558.21 67.5124 1561.94 63.1374 Q1565.7 58.7219 1565.7 51.4303 L1565.7 49.7694 L1558.29 49.7694 M1573.16 46.6907 L1573.16 72.576 L1565.7 72.576 L1565.7 65.6895 Q1563.15 69.8214 1559.34 71.8063 Q1555.54 73.7508 1550.03 73.7508 Q1543.06 73.7508 1538.93 69.8619 Q1534.84 65.9325 1534.84 59.3701 Q1534.84 51.7138 1539.94 47.825 Q1545.09 43.9361 1555.25 43.9361 L1565.7 43.9361 L1565.7 43.2069 Q1565.7 38.0623 1562.3 35.2672 Q1558.94 32.4315 1552.82 32.4315 Q1548.93 32.4315 1545.25 33.3632 Q1541.56 34.295 1538.16 36.1584 L1538.16 29.2718 Q1542.25 27.692 1546.1 26.9223 Q1549.95 26.1121 1553.59 26.1121 Q1563.44 26.1121 1568.3 31.2163 Q1573.16 36.3204 1573.16 46.6907 Z" fill="#000000" fill-rule="nonzero" fill-opacity="1"></path><path clip-path="url(#clip290)" d="M1595.88 14.324 L1595.88 27.2059 L1611.24 27.2059 L1611.24 32.9987 L1595.88 32.9987 L1595.88 57.6282 Q1595.88 63.1779 1597.38 64.7578 Q1598.92 66.3376 1603.58 66.3376 L1611.24 66.3376 L1611.24 72.576 L1603.58 72.576 Q1594.95 72.576 1591.67 69.3758 Q1588.39 66.1351 1588.39 57.6282 L1588.39 32.9987 L1582.92 32.9987 L1582.92 27.2059 L1588.39 27.2059 L1588.39 14.324 L1595.88 14.324 Z" fill="#000000" fill-rule="nonzero" fill-opacity="1"></path><path clip-path="url(#clip290)" d="M1621.04 27.2059 L1628.49 27.2059 L1628.49 72.576 L1621.04 72.576 L1621.04 27.2059 M1621.04 9.54393 L1628.49 9.54393 L1628.49 18.9825 L1621.04 18.9825 L1621.04 9.54393 Z" fill="#000000" fill-rule="nonzero" fill-opacity="1"></path><path clip-path="url(#clip290)" d="M1661.67 32.4315 Q1655.68 32.4315 1652.19 37.1306 Q1648.71 41.7891 1648.71 49.9314 Q1648.71 58.0738 1652.15 62.7728 Q1655.63 67.4314 1661.67 67.4314 Q1667.63 67.4314 1671.11 62.7323 Q1674.59 58.0333 1674.59 49.9314 Q1674.59 41.8701 1671.11 37.1711 Q1667.63 32.4315 1661.67 32.4315 M1661.67 26.1121 Q1671.39 26.1121 1676.94 32.4315 Q1682.49 38.7509 1682.49 49.9314 Q1682.49 61.0714 1676.94 67.4314 Q1671.39 73.7508 1661.67 73.7508 Q1651.91 73.7508 1646.36 67.4314 Q1640.85 61.0714 1640.85 49.9314 Q1640.85 38.7509 1646.36 32.4315 Q1651.91 26.1121 1661.67 26.1121 Z" fill="#000000" fill-rule="nonzero" fill-opacity="1"></path><path clip-path="url(#clip290)" d="M1732.56 45.1919 L1732.56 72.576 L1725.11 72.576 L1725.11 45.4349 Q1725.11 38.994 1722.6 35.7938 Q1720.08 32.5936 1715.06 32.5936 Q1709.03 32.5936 1705.54 36.4419 Q1702.06 40.2903 1702.06 46.9338 L1702.06 72.576 L1694.56 72.576 L1694.56 27.2059 L1702.06 27.2059 L1702.06 34.2544 Q1704.73 30.163 1708.34 28.1376 Q1711.98 26.1121 1716.72 26.1121 Q1724.54 26.1121 1728.55 30.9732 Q1732.56 35.7938 1732.56 45.1919 Z" fill="#000000" fill-rule="nonzero" fill-opacity="1"></path><circle clip-path="url(#clip292)" cx="502.388" cy="662.731" r="18" fill="#000003" fill-rule="evenodd" fill-opacity="1" stroke="#000000" stroke-opacity="1" stroke-width="1.6"></circle>
<circle clip-path="url(#clip292)" cx="1408.29" cy="878.655" r="18" fill="#fcfea4" fill-rule="evenodd" fill-opacity="1" stroke="#000000" stroke-opacity="1" stroke-width="1.6"></circle>
<circle clip-path="url(#clip292)" cx="2053.06" cy="160.256" r="18" fill="#fcfea4" fill-rule="evenodd" fill-opacity="1" stroke="#000000" stroke-opacity="1" stroke-width="1.6"></circle>
<circle clip-path="url(#clip292)" cx="1404.5" cy="1386.4" r="18" fill="#000003" fill-rule="evenodd" fill-opacity="1" stroke="#000000" stroke-opacity="1" stroke-width="1.6"></circle>
<circle clip-path="url(#clip292)" cx="357.819" cy="738.955" r="18" fill="#000003" fill-rule="evenodd" fill-opacity="1" stroke="#000000" stroke-opacity="1" stroke-width="1.6"></circle>
<circle clip-path="url(#clip292)" cx="1162.4" cy="586.26" r="18" fill="#fcfea4" fill-rule="evenodd" fill-opacity="1" stroke="#000000" stroke-opacity="1" stroke-width="1.6"></circle>
<circle clip-path="url(#clip292)" cx="585.603" cy="329.997" r="18" fill="#000003" fill-rule="evenodd" fill-opacity="1" stroke="#000000" stroke-opacity="1" stroke-width="1.6"></circle>
<circle clip-path="url(#clip292)" cx="1660.34" cy="166.652" r="18" fill="#fcfea4" fill-rule="evenodd" fill-opacity="1" stroke="#000000" stroke-opacity="1" stroke-width="1.6"></circle>
<circle clip-path="url(#clip292)" cx="2204.6" cy="393.861" r="18" fill="#fcfea4" fill-rule="evenodd" fill-opacity="1" stroke="#000000" stroke-opacity="1" stroke-width="1.6"></circle>
<circle clip-path="url(#clip292)" cx="1014.61" cy="513.915" r="18" fill="#000003" fill-rule="evenodd" fill-opacity="1" stroke="#000000" stroke-opacity="1" stroke-width="1.6"></circle>
<circle clip-path="url(#clip292)" cx="1044.17" cy="679.585" r="18" fill="#000003" fill-rule="evenodd" fill-opacity="1" stroke="#000000" stroke-opacity="1" stroke-width="1.6"></circle>
<circle clip-path="url(#clip292)" cx="1414.22" cy="718.443" r="18" fill="#fcfea4" fill-rule="evenodd" fill-opacity="1" stroke="#000000" stroke-opacity="1" stroke-width="1.6"></circle>
<circle clip-path="url(#clip292)" cx="2294.07" cy="494.254" r="18" fill="#fcfea4" fill-rule="evenodd" fill-opacity="1" stroke="#000000" stroke-opacity="1" stroke-width="1.6"></circle>
<circle clip-path="url(#clip292)" cx="375.42" cy="1272.37" r="18" fill="#000003" fill-rule="evenodd" fill-opacity="1" stroke="#000000" stroke-opacity="1" stroke-width="1.6"></circle>
<circle clip-path="url(#clip292)" cx="1074.09" cy="372.163" r="18" fill="#fcfea4" fill-rule="evenodd" fill-opacity="1" stroke="#000000" stroke-opacity="1" stroke-width="1.6"></circle>
<circle clip-path="url(#clip292)" cx="337.903" cy="290.394" r="18" fill="#000003" fill-rule="evenodd" fill-opacity="1" stroke="#000000" stroke-opacity="1" stroke-width="1.6"></circle>
<circle clip-path="url(#clip292)" cx="1624.47" cy="172.325" r="18" fill="#000003" fill-rule="evenodd" fill-opacity="1" stroke="#000000" stroke-opacity="1" stroke-width="1.6"></circle>
<circle clip-path="url(#clip292)" cx="2041.25" cy="1211.84" r="18" fill="#fcfea4" fill-rule="evenodd" fill-opacity="1" stroke="#000000" stroke-opacity="1" stroke-width="1.6"></circle>
<circle clip-path="url(#clip292)" cx="2132.99" cy="489.175" r="18" fill="#000003" fill-rule="evenodd" fill-opacity="1" stroke="#000000" stroke-opacity="1" stroke-width="1.6"></circle>
<circle clip-path="url(#clip292)" cx="1873" cy="202" r="18" fill="#fcfea4" fill-rule="evenodd" fill-opacity="1" stroke="#000000" stroke-opacity="1" stroke-width="1.6"></circle>
</svg>